<?xml version="1.0" standalone="no"?>
<!DOCTYPE svg PUBLIC "-//W3C//DTD SVG 1.1//EN" "http://www.w3.org/Graphics/SVG/1.1/DTD/svg11.dtd" >
<svg xmlns="http://www.w3.org/2000/svg">
<metadata></metadata>
<defs>
<font id="titlebRegular" horiz-adv-x="1107" >
<font-face units-per-em="2048" ascent="1536" descent="-512" />
<missing-glyph horiz-adv-x="430" />
<glyph horiz-adv-x="0" />
<glyph horiz-adv-x="2048" />
<glyph unicode=" "  horiz-adv-x="430" />
<glyph unicode="&#x09;" horiz-adv-x="430" />
<glyph unicode="&#xa0;" horiz-adv-x="430" />
<glyph unicode="!" horiz-adv-x="559" d="M113 152q0 70 45.5 117.5t117.5 47.5q73 0 121.5 -47t48.5 -116q0 -74 -48.5 -124t-121.5 -50t-118 49t-45 123zM123 1262v79q63 56 166 56q105 0 155 -56v-79q0 -69 -27.5 -272t-54.5 -371l-28 -168h-105q-106 655 -106 811z" />
<glyph unicode="&#x22;" horiz-adv-x="641" d="M80 1239q0 155 10 231q42 35 115 35q76 0 108 -37q-6 -58 -39 -170.5t-62 -195.5l-30 -84h-98q-4 104 -4 221zM389 1239q0 157 10 231q42 35 115 35q77 0 109 -37q-6 -58 -39 -170.5t-62 -195.5l-30 -84h-99q-4 104 -4 221z" />
<glyph unicode="#" horiz-adv-x="1243" d="M55 266q0 69 39 117h217l39 297h-225q-6 21 -6 45q0 69 39 117h215l30 221h160l-31 -221h285l29 221h160l-31 -221h209q6 -21 6 -45q0 -69 -39 -117h-199l-39 -297h207q6 -21 6 -45q0 -69 -39 -117h-196l-31 -221h-160l31 221h-282l-31 -221h-160l31 221h-228 q-6 21 -6 45zM471 383h283l41 297h-283z" />
<glyph unicode="$" horiz-adv-x="954" d="M102 201q0 93 7 147q27 19 57 19q14 0 28 -4.5t22 -8.5l7 -4q18 -135 53 -200q54 -31 156 -31q141 0 141 133q0 64 -47 104.5t-164 94.5q-92 43 -143.5 82t-77.5 91.5t-26 125.5q0 109 77 191.5t211 109.5v192q64 39 156 39h29v-221q137 -9 229 -47q12 -65 12 -172 q0 -78 -6 -105q-24 -16 -59 -16q-15 0 -28 3.5t-19 7.5l-6 3q-17 138 -54 185q-50 20 -127 20q-82 0 -117.5 -30.5t-35.5 -88.5q0 -48 38 -79.5t169 -92.5q75 -35 120 -62t82.5 -64.5t53.5 -83.5t16 -109q0 -112 -76 -202t-213 -120v-194q-64 -39 -155 -39h-29v221 q-141 5 -274 55q-7 65 -7 150z" />
<glyph unicode="%" horiz-adv-x="1345" d="M63 780q0 66 25.5 120t66.5 87t88.5 50.5t94.5 17.5q117 0 183.5 -61.5t66.5 -178.5q0 -67 -25.5 -121.5t-66.5 -86.5t-88 -49t-95 -17q-116 0 -183 58.5t-67 180.5zM248 807q0 -145 84 -145q74 0 74 124q0 67 -17.5 106.5t-66.5 39.5q-38 0 -56 -29.5t-18 -95.5zM283 37 l637 1044l139 -86l-637 -1044zM762 219q0 66 25.5 120t66.5 87t88 50.5t94 17.5q117 0 183.5 -61.5t66.5 -178.5q0 -67 -25 -121.5t-66 -86.5t-88 -49t-95 -17q-116 0 -183 58.5t-67 180.5zM946 246q0 -146 84 -146q74 0 74 125q0 67 -17.5 106.5t-66.5 39.5 q-38 0 -56 -29.5t-18 -95.5z" />
<glyph unicode="&#x26;" horiz-adv-x="1521" d="M57 313q0 234 289 416q-57 73 -85 139t-28 146q0 149 135.5 253.5t338.5 104.5q131 0 226.5 -40t121.5 -105q4 -28 4 -39q0 -74 -47 -123t-109 -70q-12 43 -31 81.5t-48.5 76t-73 60t-95.5 22.5q-71 0 -103 -44.5t-32 -113.5q0 -33 12.5 -70t28.5 -65.5t48.5 -69.5 t54 -64.5t64 -68.5t60.5 -65l246 -268q29 92 29 204v117l-131 29q-6 18 -6 32q0 25 14 46t28 30l15 8q123 -4 219 -4l285 4q0 -7 -1 -18t-13.5 -42t-36.5 -56q-81 -17 -140 -29v-90q0 -80 -39.5 -175t-109.5 -181q83 -89 166 -127.5t198 -49.5v-104q-106 -4 -223 -4 q-113 0 -195 23.5t-151 74.5q-181 -114 -385 -114q-107 0 -193.5 17t-157.5 54.5t-110 104t-39 157.5zM362 385q0 -49 11 -91t36 -80t73.5 -59.5t115.5 -21.5q145 0 246 49l-416 453q-66 -118 -66 -250z" />
<glyph unicode="'" horiz-adv-x="335" d="M80 1239q0 157 10 231q42 35 117 35q78 0 110 -37q-6 -58 -39 -170.5t-62 -195.5l-30 -84h-102q-4 104 -4 221z" />
<glyph unicode="(" horiz-adv-x="694" d="M131 575q0 123 21.5 236.5t56.5 204.5t90 183.5t110.5 164t129.5 154.5l116 -95q-138 -212 -186.5 -405t-48.5 -443q0 -249 48.5 -441.5t186.5 -405.5l-116 -95q-75 83 -130 154.5t-110 163.5t-90 183t-56.5 204.5t-21.5 236.5z" />
<glyph unicode=")" horiz-adv-x="694" d="M39 -272q138 213 186.5 405.5t48.5 441.5q0 250 -48.5 443t-186.5 405l117 95q74 -83 129.5 -155t110.5 -164t89.5 -183t56 -204.5t21.5 -236.5q0 -153 -30.5 -287t-90.5 -250.5t-126 -207.5t-160 -197z" />
<glyph unicode="*" horiz-adv-x="811" d="M68 1237q0 38 18 76t49 59l19 -6q109 -37 233 -156q-74 164 -74 271v20q32 29 95 29q60 0 92 -29v-20q0 -116 -74 -267q132 119 231 152l19 6q30 -17 48.5 -56.5t18.5 -78.5q0 -24 -8 -43l-20 -6q-64 -19 -166 -19q-27 0 -115 7q161 -98 215 -172l13 -17q-9 -41 -62 -80 q-44 -30 -90 -30l-12 16q-52 72 -92 233q-40 -157 -93 -233l-12 -16q-47 0 -90 30q-52 38 -61 80l12 17q16 22 37.5 43.5t50 43t45 33t47.5 31.5t33 21q-44 -7 -119 -7q-96 0 -160 19l-20 6q-8 24 -8 43z" />
<glyph unicode="+" horiz-adv-x="1181" d="M145 438v189h347v356h198v-356h346v-189h-346v-356h-198v356h-347z" />
<glyph unicode="," horiz-adv-x="522" d="M98 106q0 27 4.5 54.5t16.5 63.5t40.5 62.5t69.5 35.5q97 -5 158.5 -63t61.5 -161q0 -66 -26.5 -139t-68 -136t-74.5 -104.5t-63 -72.5l-88 61q104 152 104 291q0 31 -40.5 61.5t-94.5 46.5z" />
<glyph unicode="-" horiz-adv-x="657" d="M82 502q0 77 31 147h456q6 -37 6 -67q0 -82 -30 -142h-457q-6 30 -6 62z" />
<glyph unicode="." horiz-adv-x="505" d="M86 152q0 70 46 117.5t118 47.5q73 0 121.5 -47t48.5 -116q0 -74 -48.5 -124t-121.5 -50t-118.5 49t-45.5 123z" />
<glyph unicode="/" horiz-adv-x="692" d="M45 -158l397 1530h205l-395 -1530h-207z" />
<glyph unicode="0" horiz-adv-x="1165" d="M82 494q0 144 45.5 260t120.5 186t165.5 106.5t186.5 36.5q100 0 184 -27.5t153 -85.5t108.5 -160t39.5 -239q0 -118 -30 -217t-80.5 -167t-117.5 -115.5t-140 -69.5t-150 -22q-100 0 -184 28t-153 86t-108.5 160.5t-39.5 239.5zM399 555q0 -126 19 -218t64 -148t112 -56 q84 0 129 87t45 290q0 126 -19.5 218t-64 147t-111.5 55q-56 0 -93 -32t-59 -117t-22 -226z" />
<glyph unicode="1" horiz-adv-x="782" d="M57 922q0 28 13.5 51.5t27.5 32.5l13 10q245 28 454 57v-932l203 -32q-2 -64 -47 -113q-180 8 -301 8l-342 -8q-4 10 -4 29q0 24 14 45t28 30l13 9l147 32v752h-215q-4 20 -4 29z" />
<glyph unicode="2" horiz-adv-x="1112" d="M47 0v125q160 123 223 176q160 132 240 231.5t80 204.5q0 84 -39 127t-125 43q-143 0 -283 -82l-43 113q233 145 432 145q180 0 280.5 -70.5t100.5 -211.5q0 -63 -24.5 -125t-57 -106.5t-85.5 -93.5t-88.5 -75t-86.5 -61l-235 -158l514 29q39 76 53 201q27 20 62 20 q37 0 59 -22q0 -9 1 -35t1 -43q0 -203 -20 -332h-959z" />
<glyph unicode="3" horiz-adv-x="1026" d="M55 -174q0 54 29.5 97.5t87.5 62.5q4 -4 24 -26t30.5 -32.5t33.5 -29.5t42 -28.5t46 -17.5t55 -8q63 0 108 21.5t69.5 59.5t35.5 83.5t11 100.5q0 128 -69.5 199t-203.5 71h-133v113q348 44 348 266q0 149 -153 149q-123 0 -254 -73l-43 106q216 143 418 143 q172 0 258 -69t86 -189q0 -113 -76 -198t-187 -129q151 -20 239.5 -99.5t88.5 -220.5q0 -101 -45 -191.5t-122 -155t-186 -102.5t-231 -38q-93 0 -175.5 21.5t-120.5 56.5q-11 25 -11 57z" />
<glyph unicode="4" horiz-adv-x="1120" d="M41 109v118l661 836h175v-780l237 4l-8 -178h-229v-398h-279v398h-557zM260 274l338 5v423z" />
<glyph unicode="5" horiz-adv-x="1034" d="M53 -186q0 61 28 107t85 65q4 -4 24 -26t30.5 -32.5t33.5 -29.5t42 -28.5t46 -17.5t55 -8q234 0 234 299q0 119 -56 188.5t-155 69.5q-50 0 -96.5 -8.5t-75.5 -18.5t-72 -28l-57 47l49 670h729l-14 -229h-549l-29 -312q113 45 238 45q196 0 301.5 -102.5t105.5 -276.5 q0 -214 -168 -355.5t-434 -141.5q-95 0 -175.5 21t-115.5 55q-4 32 -4 47z" />
<glyph unicode="6" horiz-adv-x="1150" d="M86 543q0 131 32 247.5t100 218t167 178.5t240.5 127t314.5 64l14 -131q-238 -30 -368 -138t-168 -316q130 94 270 94q55 0 106 -11.5t101.5 -40.5t87 -73.5t59.5 -116t23 -162.5q0 -117 -39 -213t-107 -159t-158 -97t-192 -34q-104 0 -189 31t-152.5 96t-104.5 176 t-37 260zM403 604q0 -471 193 -471q46 0 77 21t47 62.5t22 89.5t6 116q0 151 -54 222t-162 71q-66 0 -126 -27q-3 -47 -3 -84z" />
<glyph unicode="7" horiz-adv-x="1032" d="M78 621q0 73 9 209.5t22 232.5h876v-139l-448 -1233l-234 82l426 1061h-475q-31 -109 -45 -218q-26 -20 -62 -20q-40 0 -69 25z" />
<glyph unicode="8" horiz-adv-x="1189" d="M104 297q0 221 299 371q-121 64 -189.5 147t-68.5 203q0 79 42.5 146.5t112.5 112.5t158 70t181 25q196 0 302 -80t106 -207q0 -188 -263 -327q46 -23 69.5 -36t62 -36.5t59 -42t46 -47.5t38.5 -58t22 -68.5t9 -84.5q0 -166 -152.5 -285.5t-384.5 -119.5 q-213 0 -331 86.5t-118 230.5zM397 350q0 -100 55 -162.5t144 -62.5q97 0 139.5 59.5t42.5 147.5q0 44 -13.5 81t-32.5 62t-57 51.5t-70 43t-87 42.5q-61 -58 -91 -120t-30 -142zM453 1069q0 -48 15 -86t47.5 -68t66.5 -51t88 -47q90 94 90 221q0 88 -46 141.5t-118 53.5 q-69 0 -106 -44.5t-37 -119.5z" />
<glyph unicode="9" horiz-adv-x="1150" d="M86 580q0 117 39 213t107 159t158 97t192 34q104 0 189 -31t152.5 -96t104.5 -176t37 -260q0 -131 -32 -247.5t-100 -218t-167 -178.5t-240.5 -127t-314.5 -64l-14 131q238 30 368 137.5t166 314.5q-134 -92 -268 -92q-55 0 -106 11.5t-101.5 40.5t-87 73.5t-59.5 116 t-23 162.5zM403 641q0 -151 53.5 -222t161.5 -71q60 0 125 25q5 68 5 86q0 471 -193 471q-46 0 -77 -21t-47 -62.5t-22 -89.5t-6 -116z" />
<glyph unicode=":" horiz-adv-x="505" d="M86 152q0 70 46 117.5t118 47.5q73 0 121.5 -47t48.5 -116q0 -74 -48.5 -124t-121.5 -50t-118.5 49t-45.5 123zM86 797q0 70 46 118t118 48q73 0 121.5 -47.5t48.5 -116.5q0 -74 -48.5 -124t-121.5 -50t-118.5 49t-45.5 123z" />
<glyph unicode=";" horiz-adv-x="501" d="M76 106q0 27 4.5 54.5t16.5 63.5t40.5 62.5t69.5 35.5q97 -5 158 -63t61 -161q0 -66 -26.5 -139t-67.5 -135.5t-74 -104.5t-63 -73l-89 61q105 153 105 291q0 31 -40.5 61.5t-94.5 46.5zM84 797q0 70 46 118t118 48q73 0 121.5 -47.5t48.5 -116.5q0 -74 -48.5 -124 t-121.5 -50t-118.5 49t-45.5 123z" />
<glyph unicode="&#x3c;" horiz-adv-x="1087" d="M106 473v119l801 475l99 -166l-627 -369l627 -368l-99 -166z" />
<glyph unicode="=" horiz-adv-x="1183" d="M145 250v188h893v-188h-893zM145 627v188h893v-188h-893z" />
<glyph unicode="&#x3e;" horiz-adv-x="1087" d="M82 164l627 368l-627 369l98 166l801 -475v-119l-801 -475z" />
<glyph unicode="?" horiz-adv-x="817" d="M35 1274q0 43 2 59q178 64 354 64q196 0 312 -76t116 -213q0 -91 -50 -170t-169 -182q-27 -24 -88.5 -70.5t-92 -78t-42.5 -68.5l-25 -82l-88 -11q-43 119 -43 203q0 30 10 57.5t36.5 59t47.5 52t68 63.5q87 80 117 136t30 118q0 68 -49.5 99.5t-115.5 31.5 q-87 0 -142 -21q-36 -92 -43 -241q-25 -21 -63 -21q-36 0 -58 16q-24 132 -24 275zM158 152q0 69 48 117t116 48q69 0 119.5 -47.5t50.5 -115.5q0 -72 -51 -123t-119 -51t-116 49.5t-48 122.5z" />
<glyph unicode="@" horiz-adv-x="1728" d="M94 305q0 182 73 352t197 296.5t297 203t363 76.5q175 0 311.5 -61.5t217.5 -184.5t81 -291q0 -112 -38 -215t-99 -177.5t-136 -130.5t-151 -84t-143 -28q-83 0 -111 35.5t-28 108.5q0 13 1 40t1 40q-19 -39 -40.5 -73t-52 -70t-69 -57.5t-78.5 -21.5q-118 0 -170.5 74.5 t-52.5 198.5q0 85 21.5 165.5t66 150.5t106 123t146.5 83.5t184 30.5q62 0 131 -11t101 -22q-24 -116 -49 -299.5t-25 -269.5q0 -54 10 -66q118 3 206.5 126t88.5 325q0 95 -27.5 173.5t-82 139t-144 94t-207.5 33.5q-145 0 -276 -58.5t-226.5 -160t-151.5 -245t-56 -306.5 q0 -129 32 -228t84.5 -161t128.5 -101t155.5 -54t174.5 -15q120 0 249 30.5t216 67.5l33 -84q-67 -44 -227.5 -95.5t-327.5 -51.5q-107 0 -199.5 15.5t-189 59.5t-164.5 114.5t-111 189.5t-43 276zM729 379q0 -105 16 -123l13 -4q37 0 91 47t79 84l55 365q-20 8 -55 8 q-43 0 -78.5 -26.5t-57.5 -66.5t-36.5 -92t-20.5 -100t-6 -92z" />
<glyph unicode="A" horiz-adv-x="1282" d="M-70 29q0 25 14.5 46t29.5 29l14 9l110 32l424 1207h238l424 -1207l159 -32q0 -62 -47 -117q-198 8 -288 8l-283 -8q-6 18 -6 33q0 25 14.5 46t28.5 29l14 9l98 32l-75 242h-420l-78 -242q30 -7 75 -15t75 -12l30 -5q0 -7 -1.5 -19.5t-13 -43.5t-32.5 -54q-162 8 -256 8 l-241 -8q-7 21 -7 33zM426 532h328l-160 521z" />
<glyph unicode="B" horiz-adv-x="1267" d="M57 29q0 25 14.5 46t28.5 29l15 9l131 32v1063l-183 29q-6 18 -6 33q0 25 14.5 45.5t28.5 28.5l15 8h551q456 0 456 -291q0 -62 -23 -116.5t-60 -92.5t-74 -63t-74 -39q150 -30 242 -112.5t92 -213.5q0 -194 -149 -309t-419 -115q-180 4 -276 4l-318 -8q-6 18 -6 33z M545 139q43 -6 153 -6q120 0 173 68t53 182q0 121 -63.5 193.5t-192.5 72.5l-123 -2v-508zM545 774l168 4q59 23 93 86t34 148q0 96 -50.5 153.5t-150.5 57.5h-94v-449z" />
<glyph unicode="C" horiz-adv-x="1337" d="M66 627q0 148 44 272t118.5 210t175 146.5t212 88.5t230.5 28q105 0 208.5 -20.5t166.5 -46.5q20 -130 20 -314q0 -75 -2 -102q-30 -23 -63 -23q-28 0 -62 17q-23 160 -65 260q-95 63 -242 63q-93 0 -163.5 -23.5t-127 -78t-86 -153.5t-29.5 -240q0 -256 114 -397.5 t331 -141.5q204 0 356 68l45 -111q-74 -50 -215.5 -99.5t-288.5 -49.5q-163 0 -292.5 48t-213 134.5t-127.5 204.5t-44 260z" />
<glyph unicode="D" horiz-adv-x="1525" d="M57 29q0 25 14.5 46t28.5 29l15 9l131 32v1063l-183 29q-6 18 -6 33q0 25 14.5 45.5t28.5 28.5l15 8h606q149 0 272 -34.5t207 -93.5t141.5 -138.5t84 -168.5t26.5 -186q0 -149 -41 -271t-113 -206.5t-172.5 -141.5t-217 -83.5t-249.5 -26.5q-34 0 -137.5 1t-169.5 1 l-289 -8q-6 18 -6 33zM545 172q66 -8 153 -8q100 0 174.5 24.5t130 79.5t83.5 150t28 229q0 170 -46 293.5t-146.5 195.5t-249.5 72h-127v-1036z" />
<glyph unicode="E" horiz-adv-x="1196" d="M57 29q0 25 14.5 46t28.5 29l15 9l131 32v1063l-183 29q-6 15 -6 33q0 25 14.5 46t28.5 30l15 8q158 -4 297 -4l657 2q18 -129 18 -324v-47q-22 -25 -65 -25q-30 0 -59 13q-26 146 -60 217l-358 8v-432l395 16v-12q0 -43 -17 -83t-34 -59l-17 -18h-327v-444l375 8 q29 62 57 231q30 17 59 17q32 0 64 -21v-32q0 -168 -21 -369q-377 8 -667 8l-349 -8q-6 18 -6 33z" />
<glyph unicode="F" horiz-adv-x="1150" d="M57 29q0 25 14.5 46t28.5 29l15 9l131 32v1063l-183 29q-6 18 -6 33q0 25 14.5 46t28.5 30l15 8q158 -4 297 -4l653 2q18 -129 18 -324v-47q-22 -25 -65 -25q-31 0 -60 13q-26 149 -59 217l-354 8v-465l399 25v-9q0 -44 -16 -85t-32 -60l-17 -20h-334v-433l262 -32 q0 -8 -1.5 -21.5t-13 -45.5t-32.5 -52q-214 8 -400 8l-297 -8q-6 18 -6 33z" />
<glyph unicode="G" horiz-adv-x="1515" d="M78 623q0 152 45.5 278t122.5 212t181.5 145.5t220.5 86.5t241 27q123 0 241.5 -19.5t184.5 -45.5q20 -130 20 -303q0 -78 -2 -103q-28 -22 -63 -22q-30 0 -62 16q-23 158 -67 254q-125 57 -285 57q-110 0 -190 -26.5t-138 -85t-87 -156.5t-29 -238q0 -250 114.5 -396 t335.5 -146q132 0 221 28v310l-192 28q-6 18 -6 33q0 25 14.5 46t28.5 29l14 9q129 -4 260 -4l287 4q0 -9 -1.5 -23.5t-13.5 -46t-32 -47.5q-61 -16 -96 -28v-353q-22 -17 -67 -40.5t-117.5 -53t-172.5 -49.5t-201 -20q-151 0 -272.5 36t-202 97t-134.5 144t-77.5 174.5 t-23.5 191.5z" />
<glyph unicode="H" horiz-adv-x="1652" d="M57 29q0 25 14.5 46t28.5 29l15 9l131 32v1063l-183 29q-6 18 -6 33q0 25 14.5 46t28.5 30l15 8q159 -4 284 -4l326 4q0 -8 -1.5 -20.5t-13 -43.5t-32.5 -53q-78 -17 -133 -29v-432h563v432l-182 29q-6 18 -6 33q0 25 14 46t28 30l15 8q160 -4 285 -4l325 4 q0 -8 -1.5 -21t-13.5 -44.5t-32 -51.5q-78 -17 -133 -29v-1063l180 -32q0 -8 -1.5 -21.5t-13.5 -45t-32 -50.5q-199 8 -297 8l-317 -8q-6 18 -6 33q0 25 14 46t28 29l15 9l131 32v478h-563v-478l180 -32q0 -7 -1.5 -19.5t-13 -43.5t-32.5 -54q-199 8 -297 8l-318 -8 q-6 18 -6 33z" />
<glyph unicode="I" horiz-adv-x="790" d="M57 29q0 25 14.5 46t28.5 29l15 9l131 32v1063l-183 29q-6 18 -6 33q0 25 14.5 46t28.5 30l15 8q159 -4 284 -4l326 4q0 -8 -1.5 -20.5t-13 -43.5t-32.5 -53q-78 -17 -133 -29v-1063l180 -32q0 -7 -1.5 -19.5t-13 -43.5t-32.5 -54q-199 8 -297 8l-318 -8q-6 18 -6 33z " />
<glyph unicode="J" horiz-adv-x="784" d="M16 -297q61 42 102 86t66.5 92t39 116.5t18 141t4.5 183.5v886l-183 29q-6 18 -6 33q0 25 14.5 46t28.5 30l15 8q159 -4 284 -4l326 4q-2 -70 -47 -117q-78 -17 -133 -29v-927q0 -175 -42 -293.5t-143 -214t-282 -181.5z" />
<glyph unicode="K" horiz-adv-x="1458" d="M57 29q0 25 14.5 46t28.5 29l15 9l131 32v1063l-183 29q-6 18 -6 33q0 25 14.5 46t28.5 30l15 8q159 -4 284 -4l326 4q0 -8 -1.5 -21t-13 -44t-32.5 -52q-78 -17 -133 -29v-1063l180 -32q0 -8 -1.5 -21t-13 -44.5t-32.5 -51.5q-199 8 -297 8l-318 -8q-6 18 -6 33z M596 690l426 518l-148 29q-6 18 -6 33q0 25 14.5 46t29.5 30l14 8q131 -4 256 -4l270 4q0 -8 -1.5 -21t-13 -44.5t-32.5 -51.5q-78 -17 -133 -29l-379 -452q82 -100 133 -174l215 -301q65 -92 120 -134t134 -59v-88q-88 -8 -186 -8q-139 0 -216 45t-165 172z" />
<glyph unicode="L" horiz-adv-x="1136" d="M57 29q0 25 14.5 46t28.5 29l15 9l131 32v1063l-183 29q-6 18 -6 33q0 25 14.5 46t28.5 30l15 8q159 -4 284 -4l346 4q0 -9 -1.5 -22.5t-13 -45t-32.5 -49.5q-90 -17 -153 -29v-1046l381 8q35 74 57 244q28 16 64 16q33 0 63 -20v-33q0 -183 -20 -381q-388 8 -678 8 l-349 -8q-6 18 -6 33z" />
<glyph unicode="M" horiz-adv-x="2029" d="M12 29q0 25 14.5 46t29.5 29l14 9l131 32l112 1063l-182 29q-6 18 -6 33q0 25 14.5 45.5t28.5 28.5l14 8h504l352 -1002l344 1002h514q0 -7 -1.5 -19.5t-13 -43t-32.5 -52.5q-65 -17 -120 -29l116 -1063l180 -32q0 -7 -1.5 -19.5t-13 -43.5t-32.5 -54q-209 8 -307 8 l-280 -8q-7 21 -7 33q0 25 14.5 46t29.5 29l14 9l117 32l-101 945l-381 -1090h-203l-395 1077l-94 -932q32 -7 79 -15t78 -12l31 -5q0 -8 -1.5 -21t-13 -44.5t-32.5 -51.5q-115 8 -213 8l-295 -8q-6 18 -6 33z" />
<glyph unicode="N" horiz-adv-x="1589" d="M49 29q0 25 14 46t29 29l14 9l132 32l12 1063l-182 29q-7 21 -7 33q0 25 14.5 45.5t28.5 28.5l15 8h387l665 -887l-10 743l-182 29q-6 18 -6 33q0 25 14.5 46t28.5 30l14 8q115 -4 240 -4l280 4q0 -8 -1.5 -21t-13.5 -44.5t-32 -51.5q-78 -17 -133 -29l-12 -1208h-193 l-727 969l13 -824l200 -32q0 -8 -1.5 -21t-13 -44.5t-32.5 -51.5q-146 8 -252 8l-297 -8q-6 18 -6 33z" />
<glyph unicode="O" horiz-adv-x="1531" d="M78 627q0 147 41.5 272t111 210.5t161.5 146t192.5 88.5t203.5 28q208 0 360.5 -83.5t230 -229t77.5 -334.5q0 -147 -41.5 -272t-111.5 -210.5t-162 -146t-192 -88.5t-204 -28q-208 0 -360 83.5t-229.5 229t-77.5 334.5zM414 711q0 -262 95 -417t271 -155q340 0 340 502 q0 261 -95 416t-271 155q-340 0 -340 -501z" />
<glyph unicode="P" horiz-adv-x="1261" d="M57 29q0 25 14.5 46t28.5 29l15 9l131 32v1063l-183 29q-6 18 -6 33q0 25 14.5 45.5t28.5 28.5l15 8h587q244 0 368 -93.5t124 -275.5q0 -107 -53 -195.5t-141 -144t-197.5 -85.5t-227.5 -30h-30v-381l262 -32q0 -8 -1.5 -21t-13 -44.5t-32.5 -53.5q-214 8 -400 8 l-297 -8q-6 18 -6 33zM545 668h28q154 0 225.5 67.5t71.5 222.5q0 265 -223 265h-102v-555z" />
<glyph unicode="Q" horiz-adv-x="1531" d="M78 627q0 147 41.5 272t111 210.5t161.5 146t192.5 88.5t203.5 28q208 0 360.5 -83.5t230 -229t77.5 -334.5q0 -148 -41 -272.5t-113 -211t-160.5 -145t-191.5 -88.5q134 -80 307 -80q141 0 285 41q-5 -101 -70.5 -172.5t-179.5 -81.5q-328 0 -510 267q-12 -2 -37 -2 q-208 0 -360 83.5t-229.5 229t-77.5 334.5zM414 711q0 -262 95 -417t271 -155q340 0 340 502q0 261 -95 416t-271 155q-340 0 -340 -501z" />
<glyph unicode="R" horiz-adv-x="1390" d="M57 29q0 25 14.5 46t28.5 29l15 9l131 32v1063l-183 29q-6 18 -6 33q0 25 14.5 45.5t28.5 28.5l15 8h608q235 0 358 -85t123 -239q0 -220 -268 -362q74 -82 119 -148l162 -239q66 -99 116 -137.5t133 -53.5v-88q-95 -10 -180 -10q-140 0 -215.5 44.5t-159.5 174.5 l-293 457q63 23 104.5 45t81 58.5t58.5 91t19 128.5q0 99 -51.5 165.5t-161.5 66.5h-123v-1076l180 -32q0 -8 -1.5 -20.5t-13 -43.5t-32.5 -53q-199 8 -297 8l-318 -8q-6 18 -6 33z" />
<glyph unicode="S" d="M74 279q0 65 8 143q27 27 70 27q34 0 59 -19q11 -173 55 -254q87 -47 226 -47q114 0 177.5 54t63.5 149q0 19 -4 36.5t-8.5 31t-18.5 29t-22 24.5t-31 24t-34 22t-43 22.5t-45.5 22t-53.5 25.5l-100 47q-154 71 -219.5 154t-65.5 221q0 163 153.5 272t387.5 109 q165 0 336 -55q18 -129 18 -262q0 -39 -4 -113q-22 -22 -64 -22q-30 0 -59 16q-17 145 -68 244q-73 47 -194 47q-98 0 -157.5 -43.5t-59.5 -126.5q0 -30 11.5 -55.5t26 -42.5t53.5 -41t66.5 -38t92.5 -46l71 -35q84 -40 138 -75t100 -81.5t67 -106t21 -135.5 q0 -102 -46.5 -183.5t-127 -132.5t-183 -78t-218.5 -27q-97 0 -197 18.5t-162 44.5q-16 109 -16 236z" />
<glyph unicode="T" horiz-adv-x="1300" d="M37 987q0 208 22 365h1172q22 -157 22 -365q0 -27 -2 -39q-32 -22 -61 -22q-16 0 -31.5 4.5t-22.5 9.5l-8 4q-5 59 -25.5 133t-49.5 119l-252 8v-1059l190 -32q0 -9 -1.5 -23t-13.5 -45.5t-32 -48.5q-205 8 -307 8l-318 -8q-6 18 -6 33q0 25 14.5 46t28.5 29l15 9l131 32 v1059l-264 -8q-30 -45 -50.5 -119.5t-25.5 -132.5q-27 -18 -62 -18q-29 0 -61 22q-2 12 -2 39z" />
<glyph unicode="U" horiz-adv-x="1533" d="M-4 1270q0 25 14 46t28 30l15 8q160 -4 285 -4l321 4q0 -8 -1.5 -21.5t-13.5 -45t-32 -50.5l-129 -29v-649q0 -96 15 -168.5t42 -120t67.5 -77.5t88 -42t107.5 -12q73 0 126 20t86 54t52 89.5t26 117t7 145.5v643l-166 29q-6 18 -6 33q0 25 14 46t28 30l15 8 q113 -4 248 -4l315 4q0 -8 -1.5 -21.5t-16 -45t-39.5 -50.5q-78 -17 -133 -29v-594q0 -117 -19.5 -212t-64 -174.5t-114 -133.5t-172.5 -84t-236 -30q-300 0 -434 129t-134 399v700l-182 29q-6 18 -6 33z" />
<glyph unicode="V" horiz-adv-x="1402" d="M-37 1270q0 25 14 46t29 30l14 8q152 -4 277 -4l340 4q0 -7 -1.5 -19.5t-13 -43.5t-32.5 -54l-133 -29l301 -854l309 854l-180 29q-6 18 -6 33q0 25 14.5 46t28.5 30l14 8q137 -4 262 -4l260 4q-2 -66 -47 -117q-78 -17 -133 -29l-461 -1208h-223l-467 1208l-160 29 q-6 18 -6 33z" />
<glyph unicode="W" horiz-adv-x="2086" d="M-39 1270q0 25 14 46t29 30l14 8q152 -4 277 -4l317 4q0 -64 -47 -117q-76 -17 -131 -29l242 -864l342 1008h170l356 -994l230 850l-164 29q-6 18 -6 33q0 25 14 46t28 30l15 8q108 -4 233 -4l250 4q-4 -74 -47 -117q-72 -17 -123 -29l-334 -1208h-239l-352 942 l-320 -942h-242l-358 1208l-162 29q-6 18 -6 33z" />
<glyph unicode="X" horiz-adv-x="1388" d="M-12 29q0 25 14 46t28 29l15 9l131 32l377 500l-385 563l-162 29q-6 18 -6 33q0 25 14 46t28 30l15 8q140 -4 265 -4l346 4q-6 -74 -47 -117q-68 -17 -113 -29l223 -338l246 338l-162 29q-6 18 -6 33q0 25 14.5 46t28.5 30l14 8q121 -4 246 -4l295 4q0 -8 -1.5 -21 t-13.5 -44.5t-32 -51.5q-78 -17 -133 -29l-377 -499l385 -564l180 -32q0 -8 -1.5 -21t-13 -44t-32.5 -52q-213 8 -319 8l-304 -8q-6 18 -6 33q0 25 14.5 46t28.5 29l15 9l100 32l-223 338l-248 -338q28 -7 68 -15t66 -12l26 -5q-2 -66 -47 -117q-160 8 -250 8l-295 -8 q-6 18 -6 33z" />
<glyph unicode="Y" horiz-adv-x="1302" d="M-16 1270q0 25 14 46t28 30l15 8q137 -4 262 -4l334 4q-2 -70 -47 -117q-76 -17 -121 -29l240 -489l239 489l-153 29q-7 21 -7 33q0 25 14.5 46t29.5 30l14 8q82 -4 207 -4l293 4q-3 -70 -48 -117q-78 -17 -133 -29l-354 -659v-404l180 -32q0 -8 -1.5 -20.5t-13 -43.5 t-32.5 -53q-195 8 -293 8l-321 -8q-6 18 -6 33q0 25 14 46t28 29l15 9l131 32v404l-360 659l-162 29q-6 18 -6 33z" />
<glyph unicode="Z" horiz-adv-x="1198" d="M59 0v154l742 1040l-502 -12q-48 -73 -92 -246q-19 -16 -55 -16q-41 0 -62 24q2 81 18.5 203t41.5 205h983v-154l-742 -1040l533 12q33 55 82 242q24 18 57 18q42 0 63 -24q0 -82 -14 -198t-37 -208h-1016z" />
<glyph unicode="[" horiz-adv-x="649" d="M172 -324v1807h496q-1 -8 -3 -21t-15 -44t-34 -50q-102 -13 -188 -25v-1527l188 -25q21 -19 34 -48t16 -48l2 -19h-496z" />
<glyph unicode="\" horiz-adv-x="692" d="M45 1372h205l397 -1530h-207z" />
<glyph unicode="]" horiz-adv-x="649" d="M-18 -324q0 8 2 21t15 44t34 50q102 13 188 25v1527l-188 25q-21 19 -33.5 48t-15.5 48l-2 19h495v-1807h-495z" />
<glyph unicode="^" horiz-adv-x="1017" d="M123 801l321 551h129l322 -553l-156 -86l-231 395l-229 -395z" />
<glyph unicode="_" horiz-adv-x="925" d="M-2 -127h930v-160h-930v160z" />
<glyph unicode="`" horiz-adv-x="665" d="M154 1366q3 71 60 110.5t148 39.5q20 -118 51 -197.5t99 -151.5l-37 -55q-109 25 -210.5 101.5t-110.5 152.5z" />
<glyph unicode="a" horiz-adv-x="1032" d="M55 246q0 121 95.5 209t295.5 123l158 26v27q0 104 -37 146t-149 42q-68 0 -142.5 -19t-119.5 -42l-37 106q60 47 178.5 93.5t249.5 46.5q84 0 147 -19.5t99.5 -50t58.5 -74.5t29.5 -86.5t7.5 -93.5q0 -68 -2 -214.5t-2 -227.5q0 -84 21 -112t85 -28h19l10 -69 q-115 -49 -213 -49q-90 0 -135 30.5t-60 98.5q-41 -38 -123.5 -83.5t-164.5 -45.5q-118 0 -193.5 72t-75.5 194zM348 307q0 -58 31.5 -96.5t97.5 -38.5q65 0 125 27q-2 33 -2 80l2 215l-100 -25q-90 -22 -122 -64t-32 -98z" />
<glyph unicode="b" horiz-adv-x="1144" d="M-18 1384q0 15 5.5 28.5t13.5 22.5t15.5 16t13.5 10l5 3q203 15 393 31v-621q3 2 22 16.5t32 23.5t36 24t44 25t46 20.5t51.5 15.5t51.5 5q72 0 138 -26t122 -78t89.5 -141.5t33.5 -205.5q0 -122 -37 -221.5t-96.5 -163.5t-139 -107.5t-160.5 -62t-165 -18.5 q-103 0 -201 15.5t-156 37.5v1298l-153 27q-4 16 -4 26zM428 162q48 -25 129 -25q54 0 94 18t64 48t39 74.5t20.5 91t5.5 104.5q0 96 -21.5 165.5t-76 114t-139.5 44.5q-60 0 -115 -25v-610z" />
<glyph unicode="c" horiz-adv-x="954" d="M53 459q0 123 47 227.5t125 173t177 106.5t204 38q188 0 287 -72q14 -32 14 -68q0 -57 -34 -110t-78 -78q-35 53 -98.5 104t-137.5 51q-90 0 -139 -77t-49 -228q0 -184 69.5 -275t198.5 -91q118 0 221 45l37 -103q-46 -36 -160 -79t-243 -43q-87 0 -163.5 27.5t-140 82.5 t-100.5 150t-37 219z" />
<glyph unicode="d" horiz-adv-x="1173" d="M53 428q0 121 36.5 220.5t95 163t134.5 107t150.5 62t148.5 18.5q56 0 101 -10v342l-154 27q-4 16 -4 26q0 24 13.5 44t26.5 28l13 8q204 15 394 31v-1345l163 -27q5 -20 5 -27q0 -24 -13.5 -44t-26.5 -28l-14 -8q-213 -10 -381 -26l-12 125q-3 -2 -42 -29.5t-70.5 -47.5 t-83.5 -39t-97 -19q-72 0 -138 26t-122 77.5t-89.5 140.5t-33.5 204zM367 508q0 -147 56.5 -234.5t180.5 -87.5q60 0 115 25v582q-32 49 -129 49q-54 0 -94 -18t-64 -48t-39 -74t-20.5 -90.5t-5.5 -103.5z" />
<glyph unicode="e" horiz-adv-x="1003" d="M53 453q0 136 43.5 244t117 173.5t163 99.5t188.5 34q170 0 266.5 -94.5t96.5 -245.5q0 -116 -27 -203l-536 -4q7 -157 73.5 -227t204.5 -70q61 0 129.5 13.5t116.5 33.5l37 -103q-20 -15 -51 -31.5t-85 -39.5t-127.5 -38t-150.5 -15q-99 0 -181 28.5t-145 84.5t-98 148 t-35 212zM365 578l258 22q10 42 10 94q0 164 -111 164q-144 0 -157 -280z" />
<glyph unicode="f" horiz-adv-x="786" d="M43 901l147 84v37q0 117 62.5 224t177.5 176t252 69q93 0 158 -27q14 -25 14 -59q0 -51 -26 -108t-58 -87q-38 33 -112 75t-121 42q-33 0 -45.5 -45.5t-12.5 -142.5v-150l275 4q0 -89 -70 -159h-205v-697q40 -7 93.5 -13t87.5 -8l34 -3q-2 -60 -49 -117q-174 8 -313 8 l-273 -8q-6 15 -6 31q0 24 14.5 43.5t28.5 27.5l15 8l79 25v703h-131z" />
<glyph unicode="g" horiz-adv-x="1085" d="M-2 -315q0 41 21 80t59.5 72t67 53t69.5 44q-115 46 -115 146q0 31 16.5 61t47.5 57t57.5 45t63.5 40q-104 39 -163 121t-59 196q0 74 26 139.5t70 113t102 82t123 52t132 17.5q119 0 203 -37l391 18q-1 -58 -22 -103t-48 -67q-21 0 -47.5 4.5t-42 9t-45 13.5t-33.5 10 q66 -87 66 -201q0 -122 -67.5 -216t-169 -140.5t-214.5 -46.5q-63 0 -112 8q-21 -32 -21 -66t22 -49t85 -16l254 -4q189 -3 267.5 -60t78.5 -165q0 -112 -86.5 -206t-234 -148t-322.5 -54q-82 0 -152.5 10t-133 31.5t-98.5 61t-36 94.5zM279 -199q0 -87 55.5 -130.5 t181.5 -43.5q131 0 197.5 52t66.5 124q0 50 -37.5 75t-138.5 26l-201 2q-59 0 -100 8q-24 -41 -24 -113zM352 647q0 -47 8 -89.5t24.5 -82t49 -63t76.5 -23.5q65 0 102 53t37 160q0 47 -7.5 90t-24.5 82.5t-49 63.5t-76 24q-65 0 -102.5 -54t-37.5 -161z" />
<glyph unicode="h" horiz-adv-x="1216" d="M4 1384q0 15 5.5 28.5t13.5 22.5t15.5 16t13.5 10l5 3q204 15 394 31v-625q180 134 319 134q70 0 122.5 -21t84 -54.5t50.5 -82.5t25.5 -97.5t6.5 -107.5v-510q26 -6 63.5 -12.5t61.5 -9.5l24 -3q-2 -53 -49 -110q-168 8 -248 8l-245 -8q-7 17 -7 31q0 24 14.5 43.5 t28.5 27.5l15 8l53 25v453q0 120 -44 166.5t-140 46.5q-75 0 -135 -29v-637q24 -6 57.5 -12.5t54.5 -9.5l21 -3q-2 -53 -49 -110q-156 8 -232 8l-280 -8q-7 17 -7 31q0 24 14.5 43.5t29.5 27.5l14 8l88 25v1200l-154 27q-4 16 -4 26z" />
<glyph unicode="i" horiz-adv-x="636" d="M23 887q0 24 13.5 44t26.5 28l13 8q213 14 403 30v-866q26 -6 63.5 -12.5t61.5 -9.5l25 -3q-2 -53 -49 -110q-168 8 -248 8l-281 -8q-6 15 -6 31q0 24 14 43.5t29 27.5l14 8l88 25v703l-163 26q-4 12 -4 27zM141 1327q0 69 50.5 118.5t121.5 49.5q75 0 122.5 -49.5 t47.5 -118.5q0 -72 -51 -123t-123 -51q-75 0 -121.5 51t-46.5 123z" />
<glyph unicode="j" horiz-adv-x="608" d="M-100 -307q155 37 233 133q35 44 46 120.5t11 237.5v650l-163 26q-4 12 -4 27q0 24 13.5 44t26.5 28l13 8q213 14 403 30v-680q0 -259 -100 -489q-43 -100 -118.5 -197t-135.5 -133q-96 1 -156.5 54t-68.5 141zM141 1327q0 69 50.5 118.5t121.5 49.5q75 0 122.5 -49.5 t47.5 -118.5q0 -72 -51 -123t-123 -51q-75 0 -121.5 51t-46.5 123z" />
<glyph unicode="k" horiz-adv-x="1222" d="M4 1384q0 15 5.5 28.5t13.5 22.5t15.5 16t13.5 10l5 3q204 15 394 31v-1364q24 -6 57.5 -12.5t54.5 -9.5l21 -3q-7 -53 -54 -110q-151 8 -227 8l-280 -8q-7 17 -7 31q0 24 14.5 43.5t29.5 27.5l14 8l88 25v1200l-154 27q-4 12 -4 26zM489 508l287 336l-102 20 q-6 15 -6 31q0 15 6 28.5t14 22.5t16.5 16t14.5 10l6 3q123 -2 219 -2l246 2q-6 -54 -53 -111q-68 -10 -113 -20l-240 -283q68 -77 127 -160l193 -270l147 -25q-8 -53 -53 -106h-350z" />
<glyph unicode="l" horiz-adv-x="608" d="M4 1384q0 15 5.5 28.5t13.5 22.5t15.5 16t13.5 10l5 3q204 15 394 31v-1364q26 -6 63.5 -12.5t61.5 -9.5l24 -3q-6 -53 -53 -110q-164 8 -244 8l-280 -8q-7 17 -7 31q0 24 14.5 43.5t29.5 27.5l14 8l88 25v1200l-154 27q-4 12 -4 26z" />
<glyph unicode="m" horiz-adv-x="1816" d="M23 887q0 24 13.5 44t26.5 28l13 8q213 14 389 30l4 -133q2 1 26 18.5t42 29.5t52 31t63.5 31t68 21t74.5 9q185 0 245 -148q4 3 31 22t46 31.5t54 32t65 32t69 21.5t75 9q69 0 120 -20t81 -52.5t48 -80.5t24 -95.5t6 -106.5v-518q26 -6 63.5 -12.5t61.5 -9.5l24 -3 q-2 -53 -49 -110q-168 8 -248 8l-245 -8q-6 15 -6 31q0 24 14 43.5t28 27.5l15 8l53 25v453q0 120 -41 166.5t-133 46.5q-71 0 -131 -29q8 -49 8 -119v-518q24 -6 57.5 -12.5t55.5 -9.5l22 -3q-2 -53 -49 -110q-161 8 -237 8l-242 -8q-6 15 -6 31q0 24 14 43.5t28 27.5l15 8 l53 25v453q0 119 -42.5 166t-131.5 47q-71 0 -131 -29v-637q24 -6 57.5 -12.5t55.5 -9.5l22 -3q-2 -53 -49 -110q-161 8 -237 8l-277 -8q-6 15 -6 31q0 24 14 43.5t29 27.5l14 8l88 25v703l-163 26q-4 16 -4 27z" />
<glyph unicode="n" horiz-adv-x="1245" d="M23 887q0 24 13.5 44t26.5 28l13 8q213 14 389 30l4 -133q2 1 26 18.5t42 29.5t52.5 31t64.5 31t69 21t76 9q70 0 122.5 -21t83.5 -54.5t50 -82.5t25.5 -97.5t6.5 -107.5v-510q26 -6 63.5 -12.5t61.5 -9.5l25 -3q-2 -53 -49 -110q-168 8 -248 8l-246 -8q-6 15 -6 31 q0 24 14 43.5t28 27.5l15 8l54 25v453q0 120 -44 166.5t-141 46.5q-75 0 -135 -29v-637q24 -6 57.5 -12.5t55.5 -9.5l22 -3q-2 -53 -49 -110q-161 8 -237 8l-277 -8q-6 15 -6 31q0 24 14 43.5t29 27.5l14 8l88 25v703l-163 26q-4 12 -4 27z" />
<glyph unicode="o" d="M53 453q0 136 45.5 244.5t120.5 173.5t165 99t187 34q99 0 183.5 -26t154 -80t109 -148t39.5 -220q0 -137 -45.5 -245.5t-120.5 -173t-165 -98t-187 -33.5q-79 0 -148.5 15.5t-132 51t-107.5 89t-71.5 135t-26.5 182.5zM371 514q0 -175 47.5 -278t146.5 -103q84 0 129 78 t45 258q0 175 -47.5 278t-146.5 103q-56 0 -93 -29t-59 -105t-22 -202z" />
<glyph unicode="p" horiz-adv-x="1183" d="M10 887q0 15 5.5 28.5t13 22.5t15.5 16t14 10l5 3q214 14 390 30l4 -129q3 2 41.5 30t70.5 48t84 39t97 19q57 0 110.5 -15.5t103.5 -50.5t87 -85.5t59.5 -127.5t22.5 -170q0 -122 -37 -221.5t-95 -163t-134.5 -107t-151 -61.5t-148.5 -18q-52 0 -100 6v-352 q26 -6 63.5 -12.5t61.5 -9.5l24 -3q-2 -54 -49 -111q-168 9 -248 9l-280 -9q-6 15 -6 31q0 15 6 28.5t14.5 22.5t16.5 16t14 10l6 3l88 25v1196l-164 26q-4 12 -4 27zM467 166q48 -25 129 -25q66 0 112 26t69 74.5t32.5 104t9.5 129.5q0 71 -12.5 127.5t-39.5 101t-74 69 t-111 24.5q-60 0 -115 -25v-606z" />
<glyph unicode="q" horiz-adv-x="1136" d="M53 430q0 122 37 222t96.5 164t139 107.5t160.5 62t165 18.5q102 0 200 -16t157 -38v-1310q26 -6 63.5 -12.5t61.5 -9.5l24 -3q-2 -54 -49 -111q-168 9 -248 9l-280 -9q-7 18 -7 31q0 24 14.5 44t28.5 28l15 8l88 25v469q-2 -2 -28 -20.5t-40 -28t-44.5 -27.5 t-54.5 -27.5t-55.5 -17.5t-60.5 -8q-72 0 -138 26t-122 77.5t-89.5 141t-33.5 205.5zM367 510q0 -96 21.5 -165.5t76 -114t139.5 -44.5q61 0 115 25v610q-48 25 -129 25q-54 0 -94 -18t-64 -48t-39 -74.5t-20.5 -91t-5.5 -104.5z" />
<glyph unicode="r" horiz-adv-x="880" d="M23 887q0 24 13.5 44t26.5 28l13 8q213 14 387 30l2 -225q9 12 32 44.5t35 47t34.5 40.5t41.5 39t45 28.5t56 21.5t65 6q42 0 74 -12q16 -31 16 -84q0 -94 -41 -174q-67 16 -129 16q-138 0 -215 -77v-531q40 -7 90.5 -13t80.5 -8l30 -3q-2 -60 -49 -117q-160 8 -299 8 l-281 -8q-6 15 -6 31q0 24 14 43.5t29 27.5l14 8l88 25v703l-163 26q-4 12 -4 27z" />
<glyph unicode="s" horiz-adv-x="905" d="M68 172q0 106 8 160q28 22 63 22q27 0 54 -12q22 -137 55 -203q74 -30 153 -30t115.5 34t36.5 86q0 58 -47 92t-187 89t-192.5 117t-52.5 169q0 127 116 217.5t308 90.5q83 0 166.5 -15t130.5 -33q10 -69 10 -178q0 -67 -2 -94q-25 -22 -64 -22q-29 0 -53 12 q-26 127 -65 190q-47 15 -113 15q-76 0 -116 -31.5t-40 -81.5q0 -49 40 -75.5t181 -84.5q135 -55 201 -121.5t66 -181.5q0 -136 -115 -229.5t-326 -93.5q-181 0 -325 57q-6 53 -6 135z" />
<glyph unicode="t" horiz-adv-x="782" d="M2 901l156 84l116 221l179 25v-242l321 4q0 -90 -69 -159h-252v-521q0 -39 1.5 -61.5t8.5 -47.5t20 -37.5t37 -21t60 -8.5q56 0 161 17l17 -107q-46 -20 -150 -43.5t-213 -23.5q-77 0 -124 16.5t-70 54.5t-30 81t-7 116v586h-146z" />
<glyph unicode="u" horiz-adv-x="1218" d="M8 887q0 15 5.5 28.5t13 22.5t15.5 16t14 10l5 3q197 14 383 30v-598q0 -120 44 -166.5t141 -46.5q75 0 135 29v619l-154 26q-4 8 -4 27q0 15 5.5 28.5t13 22.5t15.5 16t14 10l5 3q208 14 394 30v-847l164 -27q4 -12 4 -27q0 -24 -13.5 -44t-27.5 -28l-13 -8 q-213 -10 -389 -26l-4 129q-1 -1 -26 -18.5t-42.5 -29t-52 -30.5t-64.5 -31t-69 -21t-76 -9q-70 0 -122.5 21t-83.5 54t-50 82t-25.5 97.5t-6.5 107.5v492l-144 26q-4 12 -4 27z" />
<glyph unicode="v" horiz-adv-x="1085" d="M-53 901q0 15 6 28t14.5 21.5t16.5 15t14 8.5l6 3q139 -2 227 -2l306 2q-7 -50 -54 -107l-106 -34l211 -523l211 518l-135 39q-7 18 -7 31q0 24 14.5 43t28.5 26l15 7q90 -2 184 -2l244 2q-2 -50 -49 -107l-93 -39l-360 -831h-207l-364 831l-117 39q-6 15 -6 31z" />
<glyph unicode="w" horiz-adv-x="1648" d="M-53 901q0 15 6 28t14.5 21.5t16.5 15t14 8.5l6 3q152 -2 240 -2l307 2q-6 -50 -53 -107l-117 -39l168 -505l264 649h137l244 -647l168 503l-133 39q-6 15 -6 31q0 24 14.5 43t28.5 26l14 7q86 -2 174 -2l248 2q-6 -50 -53 -107l-109 -39l-285 -831h-194l-236 590 l-250 -590h-202l-291 831l-129 39q-6 15 -6 31z" />
<glyph unicode="x" horiz-adv-x="1112" d="M-20 27q0 24 14 43.5t28 27.5l15 8l108 25l277 336l-295 364l-137 39q-6 15 -6 31q0 15 6 28t14 21.5t16.5 15t14.5 8.5l6 3q162 -2 250 -2l274 2q-6 -50 -53 -107l-68 -30l150 -203l143 194l-86 39q-6 15 -6 31q0 24 14.5 43t28.5 26l14 7q105 -2 193 -2l227 2 q-2 -50 -49 -107l-108 -39l-265 -311l295 -389q26 -6 61.5 -12.5t57.5 -9.5l23 -3q-3 -53 -50 -110q-137 8 -219 8l-278 -8q-6 18 -6 35q0 23 11 41.5t23 25.5l11 8l53 23l-154 223l-155 -221q20 -6 47.5 -12.5t45.5 -9.5l17 -3q-4 -53 -51 -110q-120 8 -190 8l-256 -8 q-6 15 -6 31z" />
<glyph unicode="y" horiz-adv-x="1110" d="M-33 901q0 24 14.5 43t28.5 26l15 7q151 -2 239 -2l314 2q-11 -50 -58 -107l-102 -39l200 -516l203 516l-139 39q-6 15 -6 31q0 15 6 28t14 21.5t16.5 15t14.5 8.5l6 3q115 -2 197 -2l235 2q-6 -50 -53 -107l-94 -39l-340 -804q-190 -450 -313 -527q-10 -2 -31 -2 q-83 0 -144 49.5t-73 128.5q44 9 89.5 27.5t98 52.5t97.5 90.5t71 128.5l8 23l-379 833l-129 39q-6 15 -6 31z" />
<glyph unicode="z" horiz-adv-x="976" d="M61 0v125l506 713l-297 -11q-35 -69 -73 -196q-26 -13 -56 -13q-38 0 -69 31q11 195 47 326h786v-125l-508 -719l322 16q30 56 80 195q21 12 49 12q41 0 67 -26q-3 -62 -18.5 -163.5t-32.5 -164.5h-803z" />
<glyph unicode="{" horiz-adv-x="702" d="M61 537v90l95 14q73 11 96.5 54t23.5 126q0 70 -33.5 202t-33.5 210q0 147 76 207.5t245 60.5q73 0 172 -12v-88q-131 0 -176 -32.5t-45 -141.5q0 -72 21.5 -211.5t21.5 -208.5q0 -163 -168 -225q168 -62 168 -226q0 -69 -21.5 -208t-21.5 -211q0 -109 45 -142t176 -33 v-88q-99 -12 -172 -12q-169 0 -245 60.5t-76 207.5q0 78 33.5 210t33.5 202q0 83 -23.5 126t-96.5 54z" />
<glyph unicode="|" horiz-adv-x="567" d="M184 -324v1809h199v-1809h-199z" />
<glyph unicode="}" horiz-adv-x="702" d="M0 -238q131 0 176 33t45 142q0 72 -21.5 211t-21.5 208q0 164 168 226q-168 62 -168 225q0 69 21.5 208.5t21.5 211.5q0 109 -45 141.5t-176 32.5v88q99 12 172 12q169 0 245.5 -60.5t76.5 -207.5q0 -78 -34 -210t-34 -202q0 -82 24 -125.5t97 -54.5l94 -14v-90l-94 -15 q-73 -11 -97 -54.5t-24 -125.5q0 -70 34 -202t34 -210q0 -147 -76.5 -207.5t-245.5 -60.5q-73 0 -172 12v88z" />
<glyph unicode="~" horiz-adv-x="1179" d="M145 541q26 48 66 94t105.5 84.5t132.5 38.5q49 0 96 -17.5t78 -39t72 -39t79 -17.5q92 0 184 82l76 -68q-43 -80 -124.5 -148.5t-178.5 -68.5q-48 0 -96.5 17.5t-81.5 39t-73 39t-74 17.5q-93 0 -185 -82z" />
<glyph unicode="&#xa1;" horiz-adv-x="559" d="M113 829q0 74 48.5 124.5t121.5 50.5t118 -49t45 -124q0 -70 -45.5 -117.5t-117.5 -47.5q-73 0 -121.5 47t-48.5 116zM115 -279q0 69 27.5 272t55.5 371l27 168h105q106 -655 106 -811v-79q-63 -56 -166 -56q-105 0 -155 56v79z" />
<glyph unicode="&#xa2;" horiz-adv-x="1042" d="M113 512q0 184 109 312t280 175v203q64 39 155 39h29v-219q92 -1 166 -26.5t104 -53.5q13 -29 13 -72q0 -49 -33 -104t-90 -82q-30 52 -93.5 109t-127.5 57q-90 0 -142.5 -71t-52.5 -199q0 -334 270 -334q47 0 110.5 14t111.5 35l36 -102q-122 -84 -272 -113v-193 q-64 -39 -156 -39h-28v222q-81 8 -149.5 37.5t-123 82t-85.5 135t-31 187.5z" />
<glyph unicode="&#xa3;" horiz-adv-x="1052" d="M59 539l125 67q-8 39 -8 80q0 105 62.5 196.5t171 146t235.5 54.5q138 0 244 -32q14 -25 14 -58q0 -45 -26 -92t-60 -70q-119 99 -250 99q-66 0 -93.5 -39.5t-27.5 -116.5q0 -54 19 -139l311 6q0 -41 -17 -82t-33 -61l-17 -21h-222q0 -87 -36.5 -170t-98.5 -143l473 10 q30 64 43 178q23 15 62 15q35 0 55 -17q0 -207 -20 -356q-367 8 -596 8l-263 -8q-45 22 -45 96q148 107 148 328q0 19 -4 59h-133z" />
<glyph unicode="&#xa4;" horiz-adv-x="1241" d="M119 213l127 127q-66 104 -66 238q0 129 68 237l-129 129l139 139l129 -131q106 64 234 64q125 0 231 -64l131 131l139 -139l-129 -129q68 -108 68 -237q0 -130 -66 -236l127 -127l-139 -139l-127 127q-108 -68 -235 -68q-128 0 -236 68l-127 -127zM393 578 q0 -105 62 -177.5t166 -72.5t165.5 72.5t61.5 177.5t-61.5 176t-165.5 71t-166 -71t-62 -176z" />
<glyph unicode="&#xa5;" horiz-adv-x="1306" d="M61 981q0 21 13 41.5t26 30.5l13 10q108 -2 219 -2l280 2q-2 -70 -41 -107q-46 -14 -77 -22l198 -316l211 316l-133 22q-4 8 -4 25q0 21 12 41.5t24 30.5l13 10q57 -2 168 -2l272 2q-2 -70 -43 -107q-78 -14 -127 -22l-184 -279h215q0 -33 -15.5 -63.5t-31.5 -46.5h-242 l-53 -82v-39h342q0 -33 -15.5 -64t-31.5 -47h-295v-178l164 -26q0 -8 -1 -21.5t-11.5 -44t-28.5 -47.5q-182 8 -270 8l-275 -8q-6 15 -6 41q0 20 13 38t25 26l13 8l121 26v178h-352q0 33 15.5 64.5t31.5 46.5h305v39l-55 82h-297q0 33 15.5 63.5t31.5 46.5h174l-186 279 l-133 22q-7 14 -7 25z" />
<glyph unicode="&#xa6;" horiz-adv-x="567" d="M184 -358v807h199v-807h-199zM184 709v807h199v-807h-199z" />
<glyph unicode="&#xa7;" horiz-adv-x="1083" d="M68 406q0 95 52 171t146 150q-93 51 -134.5 116.5t-41.5 160.5q0 157 145.5 262.5t380.5 105.5q173 0 324 -47q18 -135 18 -274q0 -63 -2 -88q-22 -25 -65 -25q-32 0 -60 14q-16 147 -65 234q-68 41 -176 41q-101 0 -159 -42t-58 -112q0 -60 46 -93.5t202 -96.5l84 -35 q165 -69 227.5 -143t62.5 -191q0 -96 -53 -173t-147 -151q87 -47 132.5 -113.5t45.5 -174.5q0 -160 -148 -265.5t-381 -105.5q-189 0 -335 61q-13 130 -13 234q0 86 4 121q24 24 68 24q30 0 57 -18q20 -159 51 -225q80 -52 209 -52q105 0 155 37.5t50 114.5q0 38 -10.5 63.5 t-45 50.5t-72.5 43t-120 52l-84 35q-165 69 -227.5 143t-62.5 191zM332 514q0 -29 4.5 -48t18 -41.5t40 -42t70 -42.5t108.5 -51l99 -43q59 80 59 160q0 36 -7 59.5t-31.5 51.5t-73.5 54.5t-130 59.5l-100 41q-57 -81 -57 -158z" />
<glyph unicode="&#xa8;" horiz-adv-x="997" d="M154 1325q0 60 41.5 101.5t101.5 41.5t101.5 -41.5t41.5 -101.5t-41.5 -101.5t-101.5 -41.5t-101.5 41.5t-41.5 101.5zM557 1325q0 60 41.5 101.5t101.5 41.5t102 -41.5t42 -101.5t-42 -101.5t-102 -41.5t-101.5 41.5t-41.5 101.5z" />
<glyph unicode="&#xa9;" horiz-adv-x="1650" d="M119 680q0 200 91.5 360.5t252.5 250t362 89.5q203 0 364 -89t252 -249t91 -362q0 -120 -34.5 -228.5t-98 -193.5t-150 -148t-195.5 -96.5t-229 -33.5q-203 0 -364 89t-251.5 249t-90.5 362zM276 680q0 -254 149.5 -410.5t399.5 -156.5t399.5 156.5t149.5 410.5 t-149.5 410.5t-399.5 156.5t-399.5 -156.5t-149.5 -410.5zM430 655q0 107 40 193t105 138.5t143.5 80t160.5 27.5q109 0 202 -41q17 -130 17 -258q-24 -21 -56 -21q-15 0 -29 3t-21 6l-7 3q-10 96 -35 156q-36 16 -92 16q-168 0 -168 -253q0 -135 56.5 -207t150.5 -72 q90 0 182 45l45 -100q-46 -33 -126 -65t-160 -32q-193 0 -300.5 106t-107.5 275z" />
<glyph unicode="&#xaa;" horiz-adv-x="839" d="M82 854q0 83 67.5 143.5t206.5 85.5l107 19q0 74 -26.5 106.5t-100.5 32.5q-84 0 -182 -45l-25 80q40 32 122.5 64t172.5 32q59 0 103.5 -13.5t70 -34.5t41 -52.5t20.5 -61.5t5 -67l-2 -281q0 -69 12.5 -87.5t58.5 -18.5h12l9 -54q-84 -34 -152 -34q-61 0 -92 21t-43 65 q-107 -86 -195 -86q-87 0 -138.5 45.5t-51.5 140.5zM285 895q0 -84 92 -84q56 0 84 12v51v146l-68 -14q-64 -14 -86 -42t-22 -69z" />
<glyph unicode="&#xab;" horiz-adv-x="1150" d="M90 434v160q88 57 198.5 139.5t177.5 136.5l66 54l58 -74q-11 -20 -32 -54.5t-86.5 -123.5t-133.5 -158q68 -69 131 -153t92 -133l29 -50l-58 -74q-245 201 -442 330zM561 434v160q88 57 198.5 139.5t177.5 136.5l67 54l57 -74q-11 -20 -32 -54.5t-86.5 -123.5 t-133.5 -158q68 -69 131 -153t92 -133l29 -50l-57 -74q-246 201 -443 330z" />
<glyph unicode="&#xac;" horiz-adv-x="1183" d="M145 438v189h893v-559h-198v370h-695z" />
<glyph unicode="&#xad;" horiz-adv-x="657" d="M82 502q0 77 31 147h456q6 -37 6 -67q0 -82 -30 -142h-457q-6 30 -6 62z" />
<glyph unicode="&#xae;" horiz-adv-x="960" d="M90 1049q0 166 108.5 275.5t280.5 109.5q173 0 282 -109.5t109 -275.5q0 -165 -109 -274t-282 -109q-171 0 -280 109t-109 274zM190 1049q0 -131 79.5 -217.5t209.5 -86.5q134 0 214.5 86t80.5 218q0 133 -80.5 218t-214.5 85q-130 0 -209.5 -85.5t-79.5 -217.5z M315 1214q0 16 17 33h153q150 0 150 -94q0 -69 -74 -100l68 -97q24 -36 53 -41v-34q-20 -4 -43 -4q-65 0 -98 49l-70 118v19q66 15 66 82q0 51 -64 51h-20v-272l39 -6q-1 -26 -13 -44q-30 3 -65 3l-92 -3q-3 12 -3 13q0 18 13 31l30 6v270l-45 4q-2 4 -2 16z" />
<glyph unicode="&#xaf;" horiz-adv-x="911" d="M154 1272q0 67 32 110h564q8 -28 8 -51q0 -65 -33 -110h-563q-8 28 -8 51z" />
<glyph unicode="&#xb0;" horiz-adv-x="579" d="M20 1198q0 125 85 196.5t196 71.5q118 0 188 -63t70 -168q0 -125 -84.5 -196.5t-195.5 -71.5q-119 0 -189 63t-70 168zM203 1225q0 -62 22.5 -101t67.5 -39q44 0 66 27t22 96q0 64 -22.5 103t-67.5 39q-44 0 -66 -28t-22 -97z" />
<glyph unicode="&#xb1;" horiz-adv-x="1077" d="M156 0v184h766v-184h-766zM156 537v172h290v272h183v-272h293v-172h-293v-256h-183v256h-290z" />
<glyph unicode="&#xb2;" horiz-adv-x="804" d="M43 956v91q113 88 154 127q97 94 133.5 152t36.5 112q0 92 -105 92q-76 0 -164 -55l-30 81q159 103 303 103q108 0 175.5 -47t67.5 -135q0 -37 -12.5 -72.5t-29.5 -64t-50 -60.5t-58.5 -53.5t-70.5 -51t-71 -45t-74 -43.5l307 17q18 50 29 108q24 17 45 17q29 0 51 -19 v-41q0 -112 -16 -213h-621z" />
<glyph unicode="&#xb3;" horiz-adv-x="735" d="M41 1034q0 38 21.5 71.5t52.5 47.5q29 -34 80.5 -65t93.5 -31q108 0 108 117q0 53 -38.5 77.5t-122.5 24.5h-89v80q108 9 159.5 37.5t51.5 83.5q0 73 -82 73q-73 0 -161 -49l-37 70q43 25 74.5 40t93 31.5t123.5 16.5q119 0 178 -35.5t59 -110.5q0 -59 -56 -106t-120 -55 q93 0 153 -40t60 -112q0 -109 -109.5 -183.5t-281.5 -74.5q-60 0 -118 11.5t-81 31.5q-12 21 -12 49z" />
<glyph unicode="&#xb4;" horiz-adv-x="677" d="M154 1167q71 76 103 155t52 194q193 0 215 -156q-10 -83 -113 -153.5t-218 -96.5z" />
<glyph unicode="&#xb6;" horiz-adv-x="1110" d="M51 979q0 91 31.5 164t84.5 117.5t120.5 68t142.5 23.5h66v-820h-23q-106 0 -203 57.5t-158 161.5t-61 228zM389 -319q40 32 70.5 61t53.5 62.5t39 61.5t26.5 71.5t16.5 77t9 92.5t3.5 104.5t0.5 126.5v1014h436q0 -7 -1.5 -19t-13 -42.5t-32.5 -53.5q-78 -17 -133 -29 v-911q0 -96 -5 -161.5t-20.5 -132.5t-43.5 -116t-74.5 -100.5t-112.5 -98t-159 -98.5z" />
<glyph unicode="&#xb7;" horiz-adv-x="505" d="M86 559q0 70 46 118t118 48q73 0 121.5 -47.5t48.5 -116.5q0 -74 -48.5 -124t-121.5 -50t-118.5 49t-45.5 123z" />
<glyph unicode="&#xb8;" horiz-adv-x="739" d="M154 -418q50 2 85 8t66 17.5t46.5 33.5t15.5 54q0 65 -86 65q-29 0 -64 -10l-43 35l88 289l137 -13l-86 -223q57 25 115 25q70 0 114 -38t44 -108q0 -63 -37.5 -110t-101.5 -72t-135 -37t-150 -12z" />
<glyph unicode="&#xb9;" horiz-adv-x="704" d="M59 1528q0 23 11.5 43t23.5 29l12 8q182 21 336 39v-576l150 -27q-6 -63 -35 -98q-114 6 -225 6l-262 -6q-4 8 -4 29q0 19 11 36.5t21 24.5l11 8l108 27v432h-156q-2 6 -2 25z" />
<glyph unicode="&#xba;" horiz-adv-x="798" d="M51 993q0 94 31.5 168.5t83.5 119t115 68t131 23.5q70 0 128.5 -17.5t106.5 -54.5t75.5 -101.5t27.5 -151.5q0 -94 -31.5 -169t-83.5 -119.5t-115 -67.5t-131 -23q-70 0 -128.5 17.5t-106.5 54.5t-75.5 101.5t-27.5 151.5zM276 1036q0 -108 32 -173.5t98 -65.5 q57 0 85.5 48.5t28.5 162.5q0 108 -31 173.5t-96 65.5q-59 0 -88 -47.5t-29 -163.5z" />
<glyph unicode="&#xbb;" horiz-adv-x="1150" d="M90 178q11 20 32 54.5t86.5 123.5t133.5 158q-68 69 -131 153t-92 133l-29 50l57 74q246 -201 443 -330v-160q-88 -57 -198.5 -139.5t-177.5 -136.5l-67 -54zM561 178q11 20 32 54.5t86.5 123.5t133.5 158q-68 69 -131 153t-92 133l-29 50l57 74q246 -201 443 -330v-160 q-88 -57 -198.5 -139.5t-177.5 -136.5l-67 -54z" />
<glyph unicode="&#xbc;" horiz-adv-x="1681" d="M70 1241q0 23 12 43t24 28l11 9q182 21 336 39v-576l149 -26q-6 -64 -35 -99q-114 7 -225 7l-262 -7q-4 8 -4 29q0 19 11 36.5t21 25.5l11 8l108 26v433h-155q-2 6 -2 24zM393 -20l680 1415l141 -68l-677 -1419zM895 178v103l371 432h180v-410l143 2l-6 -127h-137v-178 h-207v178h-344zM1042 297l197 2v231z" />
<glyph unicode="&#xbd;" horiz-adv-x="1738" d="M70 1241q0 23 12 43t24 28l11 9q182 21 336 39v-576l149 -26q-6 -64 -35 -99q-114 7 -225 7l-262 -7q-4 8 -4 29q0 19 11 36.5t21 25.5l11 8l108 26v433h-155q-2 6 -2 24zM393 -20l680 1415l141 -68l-677 -1419zM993 0v90q113 88 154 127q97 94 133.5 152t36.5 112 q0 92 -105 92q-75 0 -163 -55l-31 82q157 102 303 102q109 0 176.5 -47t67.5 -135q0 -32 -8 -62.5t-26.5 -59t-36.5 -52.5t-50.5 -50.5t-54.5 -44t-63.5 -43.5t-62.5 -39t-65 -38l307 16q18 49 29 109q22 16 45 16q30 0 51 -18v-41q0 -112 -16 -213h-621z" />
<glyph unicode="&#xbe;" horiz-adv-x="1718" d="M70 743q0 38 21 71.5t52 47.5q29 -34 80.5 -65t93.5 -31q109 0 109 117q0 53 -39 77.5t-123 24.5h-88v80q108 9 159.5 37.5t51.5 83.5q0 74 -82 74q-72 0 -162 -50l-37 70q43 25 74.5 40t93 31.5t123.5 16.5q119 0 178.5 -35t59.5 -110q0 -59 -56 -106.5t-120 -55.5 q93 0 153 -40t60 -112q0 -109 -109.5 -183.5t-281.5 -74.5q-60 0 -118 11.5t-81 31.5q-12 21 -12 49zM432 -20l680 1415l141 -68l-678 -1419zM932 178v103l371 432h180v-410l143 2l-6 -127h-137v-178h-207v178h-344zM1079 297l197 2v231z" />
<glyph unicode="&#xbf;" horiz-adv-x="817" d="M-2 -125q0 91 50 170t169 182q27 24 88.5 70.5t92 78t42.5 68.5l25 82l88 11q43 -119 43 -203q0 -30 -10 -57.5t-36.5 -59t-47.5 -52t-68 -63.5q-87 -80 -117 -136t-30 -118q0 -68 50 -99.5t116 -31.5q85 0 141 21q36 91 43 242q23 20 63 20q36 0 58 -16q24 -132 24 -275 q0 -43 -2 -59q-178 -64 -354 -64q-196 0 -312 76t-116 213zM326 829q0 73 51 124t119 51t115.5 -50t47.5 -123q0 -69 -47.5 -117t-115.5 -48q-69 0 -119.5 47.5t-50.5 115.5z" />
<glyph unicode="&#xc0;" horiz-adv-x="1282" d="M-70 29q0 25 14.5 46t29.5 29l14 9l110 32l424 1207h238l424 -1207l159 -32q0 -62 -47 -117q-198 8 -288 8l-283 -8q-6 18 -6 33q0 25 14.5 46t28.5 29l14 9l98 32l-75 242h-420l-78 -242q30 -7 75 -15t75 -12l30 -5q0 -7 -1.5 -19.5t-13 -43.5t-32.5 -54q-162 8 -256 8 l-241 -8q-7 21 -7 33zM389 1661q6 66 54.5 102.5t125.5 36.5q25 0 37 -2q31 -89 81 -147t136 -115l-30 -78q-164 17 -273.5 73.5t-130.5 129.5zM426 532h328l-160 521z" />
<glyph unicode="&#xc1;" horiz-adv-x="1282" d="M-70 29q0 25 14.5 46t29.5 29l14 9l110 32l424 1207h238l424 -1207l159 -32q0 -62 -47 -117q-198 8 -288 8l-283 -8q-6 18 -6 33q0 25 14.5 46t28.5 29l14 9l98 32l-75 242h-420l-78 -242q30 -7 75 -15t75 -12l30 -5q0 -7 -1.5 -19.5t-13 -43.5t-32.5 -54q-162 8 -256 8 l-241 -8q-7 21 -7 33zM426 532h328l-160 521zM430 1530q90 53 143 120.5t103 172.5q76 -21 120 -64.5t44 -103.5q0 -11 -4 -35q-26 -68 -137.5 -112t-221.5 -44h-24z" />
<glyph unicode="&#xc2;" horiz-adv-x="1282" d="M-70 29q0 25 14.5 46t29.5 29l14 9l110 32l424 1207h238l424 -1207l159 -32q0 -62 -47 -117q-198 8 -288 8l-283 -8q-6 18 -6 33q0 25 14.5 46t28.5 29l14 9l98 32l-75 242h-420l-78 -242q30 -7 75 -15t75 -12l30 -5q0 -7 -1.5 -19.5t-13 -43.5t-32.5 -54q-162 8 -256 8 l-241 -8q-7 21 -7 33zM313 1513l265 254h190q27 -74 85 -132.5t136 -94.5l-88 -78q-76 9 -163 53.5t-126 92.5l-225 -160zM426 532h328l-160 521z" />
<glyph unicode="&#xc3;" horiz-adv-x="1282" d="M-70 29q0 25 14.5 46t29.5 29l14 9l110 32l424 1207h238l424 -1207l159 -32q0 -62 -47 -117q-198 8 -288 8l-283 -8q-6 18 -6 33q0 25 14.5 46t28.5 29l14 9l98 32l-75 242h-420l-78 -242q30 -7 75 -15t75 -12l30 -5q0 -7 -1.5 -19.5t-13 -43.5t-32.5 -54q-162 8 -256 8 l-241 -8q-7 21 -7 33zM322 1556q27 80 84.5 143.5t138.5 63.5q37 0 69.5 -15.5t52.5 -34.5t49.5 -34.5t59.5 -15.5q27 0 50 11.5t32.5 20.5t36.5 38l66 -50q-27 -81 -84.5 -143.5t-139.5 -62.5q-42 0 -81.5 25t-75.5 50t-70 25q-29 0 -53 -11.5t-33.5 -21t-36.5 -37.5z M426 532h328l-160 521z" />
<glyph unicode="&#xc4;" horiz-adv-x="1282" d="M-70 29q0 25 14.5 46t29.5 29l14 9l110 32l424 1207h238l424 -1207l159 -32q0 -62 -47 -117q-198 8 -288 8l-283 -8q-6 18 -6 33q0 25 14.5 46t28.5 29l14 9l98 32l-75 242h-420l-78 -242q30 -7 75 -15t75 -12l30 -5q0 -7 -1.5 -19.5t-13 -43.5t-32.5 -54q-162 8 -256 8 l-241 -8q-7 21 -7 33zM285 1614q0 60 41.5 101.5t101.5 41.5t101.5 -41.5t41.5 -101.5t-41.5 -102t-101.5 -42t-101.5 42t-41.5 102zM426 532h328l-160 521zM688 1614q0 60 41.5 101.5t101.5 41.5t102 -41.5t42 -101.5t-42 -102t-102 -42t-101.5 42t-41.5 102z" />
<glyph unicode="&#xc5;" horiz-adv-x="1282" d="M-70 29q0 25 14.5 46t29.5 29l14 9l110 32l424 1207h238l424 -1207l159 -32q0 -62 -47 -117q-198 8 -288 8l-283 -8q-6 18 -6 33q0 25 14.5 46t28.5 29l14 9l98 32l-75 242h-420l-78 -242q30 -7 75 -15t75 -12l30 -5q0 -7 -1.5 -19.5t-13 -43.5t-32.5 -54q-162 8 -256 8 l-241 -8q-7 21 -7 33zM412 1649q0 89 60 151t167 62t167 -62t60 -151t-60 -151t-167 -62t-167 62t-60 151zM426 532h328l-160 521zM553 1649q0 -44 22 -71.5t64 -27.5q43 0 64.5 27.5t21.5 71.5t-21 71t-65 27t-65 -27t-21 -71z" />
<glyph unicode="&#xc6;" horiz-adv-x="1650" d="M-72 29q0 25 14.5 46t29.5 29l14 9l110 32l424 1207h993q17 -131 17 -371q-30 -18 -64 -18q-16 0 -32 3.5t-24 7.5l-9 3q-21 149 -51 211l-531 8l129 -426l436 25q0 -45 -17 -88t-33 -63l-17 -21h-324l140 -461l249 8q31 63 52 221q24 15 59 15q32 0 63 -19 q0 -245 -20 -391q-232 8 -522 8l-352 -8q-7 21 -7 33q0 25 14.5 46t28.5 29l15 9l137 32l-70 242h-407l-78 -242q32 -7 79.5 -15t79.5 -12l31 -5q0 -7 -1.5 -19.5t-13 -43.5t-32.5 -54q-160 8 -258 8l-246 -8q-6 18 -6 33zM420 532h319l-147 529z" />
<glyph unicode="&#xc7;" horiz-adv-x="1337" d="M66 627q0 148 44 272t118.5 210t175 146.5t212 88.5t230.5 28q105 0 208.5 -20.5t166.5 -46.5q20 -130 20 -314q0 -75 -2 -102q-30 -23 -63 -23q-28 0 -62 17q-23 160 -65 260q-95 63 -242 63q-93 0 -163.5 -23.5t-127 -78t-86 -153.5t-29.5 -240q0 -256 114 -397.5 t331 -141.5q204 0 356 68l45 -111q-73 -49 -209.5 -97.5t-281.5 -51.5l-54 -142q58 25 115 25q70 0 114 -38t44 -108q0 -63 -37.5 -110t-101.5 -72t-135 -37t-150 -12l-8 96q50 2 85 8t66 17.5t46.5 33.5t15.5 54q0 65 -86 65q-29 0 -64 -10l-43 35l62 203q-269 32 -414 204 t-145 435z" />
<glyph unicode="&#xc8;" horiz-adv-x="1196" d="M57 29q0 25 14.5 46t28.5 29l15 9l131 32v1063l-183 29q-6 15 -6 33q0 25 14.5 46t28.5 30l15 8q158 -4 297 -4l657 2q18 -129 18 -324v-47q-22 -25 -65 -25q-30 0 -59 13q-26 146 -60 217l-358 8v-432l395 16v-12q0 -43 -17 -83t-34 -59l-17 -18h-327v-444l375 8 q29 62 57 231q30 17 59 17q32 0 64 -21v-32q0 -168 -21 -369q-377 8 -667 8l-349 -8q-6 18 -6 33zM387 1661q6 66 54.5 102.5t125.5 36.5q25 0 37 -2q31 -89 81 -147t136 -115l-30 -78q-164 17 -273.5 73.5t-130.5 129.5z" />
<glyph unicode="&#xc9;" horiz-adv-x="1196" d="M57 29q0 25 14.5 46t28.5 29l15 9l131 32v1063l-183 29q-6 15 -6 33q0 25 14.5 46t28.5 30l15 8q158 -4 297 -4l657 2q18 -129 18 -324v-47q-22 -25 -65 -25q-30 0 -59 13q-26 146 -60 217l-358 8v-432l395 16v-12q0 -43 -17 -83t-34 -59l-17 -18h-327v-444l375 8 q29 62 57 231q30 17 59 17q32 0 64 -21v-32q0 -168 -21 -369q-377 8 -667 8l-349 -8q-6 18 -6 33zM426 1530q90 53 143 120.5t103 172.5q76 -21 120 -64.5t44 -103.5q0 -5 -5 -35q-26 -68 -137 -112t-221 -44h-24z" />
<glyph unicode="&#xca;" horiz-adv-x="1196" d="M57 29q0 25 14.5 46t28.5 29l15 9l131 32v1063l-183 29q-6 15 -6 33q0 25 14.5 46t28.5 30l15 8q158 -4 297 -4l657 2q18 -129 18 -324v-47q-22 -25 -65 -25q-30 0 -59 13q-26 146 -60 217l-358 8v-432l395 16v-12q0 -43 -17 -83t-34 -59l-17 -18h-327v-444l375 8 q29 62 57 231q30 17 59 17q32 0 64 -21v-32q0 -168 -21 -369q-377 8 -667 8l-349 -8q-6 18 -6 33zM289 1513l264 254h190q27 -74 85.5 -132.5t136.5 -94.5l-88 -78q-76 9 -163 53.5t-126 92.5l-226 -160z" />
<glyph unicode="&#xcb;" horiz-adv-x="1196" d="M57 29q0 25 14.5 46t28.5 29l15 9l131 32v1063l-183 29q-6 15 -6 33q0 25 14.5 46t28.5 30l15 8q158 -4 297 -4l657 2q18 -129 18 -324v-47q-22 -25 -65 -25q-30 0 -59 13q-26 146 -60 217l-358 8v-432l395 16v-12q0 -43 -17 -83t-34 -59l-17 -18h-327v-444l375 8 q29 62 57 231q30 17 59 17q32 0 64 -21v-32q0 -168 -21 -369q-377 8 -667 8l-349 -8q-6 18 -6 33zM276 1614q0 60 42 101.5t102 41.5t101.5 -41.5t41.5 -101.5t-41.5 -102t-101.5 -42t-102 42t-42 102zM680 1614q0 60 41.5 101.5t101.5 41.5t102 -41.5t42 -101.5t-42 -102 t-102 -42t-101.5 42t-41.5 102z" />
<glyph unicode="&#xcc;" horiz-adv-x="790" d="M57 29q0 25 14.5 46t28.5 29l15 9l131 32v1063l-183 29q-6 18 -6 33q0 25 14.5 46t28.5 30l15 8q159 -4 284 -4l326 4q0 -8 -1.5 -20.5t-13 -43.5t-32.5 -53q-78 -17 -133 -29v-1063l180 -32q0 -7 -1.5 -19.5t-13 -43.5t-32.5 -54q-199 8 -297 8l-318 -8q-6 18 -6 33z M170 1661q6 66 54.5 102.5t125.5 36.5q25 0 37 -2q31 -89 81 -147t136 -115l-31 -78q-164 17 -273 73.5t-130 129.5z" />
<glyph unicode="&#xcd;" horiz-adv-x="790" d="M57 29q0 25 14.5 46t28.5 29l15 9l131 32v1063l-183 29q-6 18 -6 33q0 25 14.5 46t28.5 30l15 8q159 -4 284 -4l326 4q0 -8 -1.5 -20.5t-13 -43.5t-32.5 -53q-78 -17 -133 -29v-1063l180 -32q0 -7 -1.5 -19.5t-13 -43.5t-32.5 -54q-199 8 -297 8l-318 -8q-6 18 -6 33z M174 1530q90 53 143 120.5t103 172.5q76 -21 120 -64.5t44 -103.5q0 -11 -4 -35q-26 -68 -137.5 -112t-221.5 -44h-24z" />
<glyph unicode="&#xce;" horiz-adv-x="790" d="M57 29q0 25 14.5 46t28.5 29l15 9l131 32v1063l-183 29q-6 18 -6 33q0 25 14.5 46t28.5 30l15 8q159 -4 284 -4l326 4q0 -8 -1.5 -20.5t-13 -43.5t-32.5 -53q-78 -17 -133 -29v-1063l180 -32q0 -7 -1.5 -19.5t-13 -43.5t-32.5 -54q-199 8 -297 8l-318 -8q-6 18 -6 33z M66 1513l264 254h190q27 -74 85 -132.5t136 -94.5l-88 -78q-75 9 -162 53.5t-126 92.5l-226 -160z" />
<glyph unicode="&#xcf;" horiz-adv-x="790" d="M49 1614q0 60 42 101.5t102 41.5t101.5 -41.5t41.5 -101.5t-41.5 -102t-101.5 -42t-102 42t-42 102zM57 29q0 25 14.5 46t28.5 29l15 9l131 32v1063l-183 29q-6 18 -6 33q0 25 14.5 46t28.5 30l15 8q159 -4 284 -4l326 4q0 -8 -1.5 -20.5t-13 -43.5t-32.5 -53 q-78 -17 -133 -29v-1063l180 -32q0 -7 -1.5 -19.5t-13 -43.5t-32.5 -54q-199 8 -297 8l-318 -8q-6 18 -6 33zM453 1614q0 60 41.5 101.5t101.5 41.5t101.5 -41.5t41.5 -101.5t-41.5 -102t-101.5 -42t-101.5 42t-41.5 102z" />
<glyph unicode="&#xd0;" horiz-adv-x="1523" d="M55 29q0 25 14.5 46t28.5 29l15 9l131 32v490h-185q-4 16 -4 37q0 44 23 90h166v446l-183 29q-6 18 -6 33q0 25 14.5 45.5t28.5 28.5l15 8h606q149 0 272 -34.5t207 -93.5t141.5 -138.5t84 -168.5t26.5 -186q0 -149 -41 -271t-113 -206.5t-172.5 -141.5t-217 -83.5 t-249.5 -26.5q-34 0 -137.5 1t-169.5 1l-289 -8q-6 18 -6 33zM543 172q66 -8 153 -8q100 0 174.5 24.5t130 79.5t83.5 150t28 229q0 170 -46 293.5t-146.5 195.5t-249.5 72h-127v-446h268q4 -20 4 -39q0 -55 -22 -88h-250v-463z" />
<glyph unicode="&#xd1;" horiz-adv-x="1589" d="M49 29q0 25 14 46t29 29l14 9l132 32l12 1063l-182 29q-7 21 -7 33q0 25 14.5 45.5t28.5 28.5l15 8h387l665 -887l-10 743l-182 29q-6 18 -6 33q0 25 14.5 46t28.5 30l14 8q115 -4 240 -4l280 4q0 -8 -1.5 -21t-13.5 -44.5t-32 -51.5q-78 -17 -133 -29l-12 -1208h-193 l-727 969l13 -824l200 -32q0 -8 -1.5 -21t-13 -44.5t-32.5 -51.5q-146 8 -252 8l-297 -8q-6 18 -6 33zM489 1556q12 36 31 70t46.5 66t66 51.5t80.5 19.5q37 0 69.5 -15.5t52.5 -34.5t49.5 -34.5t59.5 -15.5q27 0 50 11.5t32.5 20.5t36.5 38l65 -50q-27 -81 -84 -143.5 t-139 -62.5q-42 0 -81.5 25t-75.5 50t-70 25q-29 0 -53 -11.5t-33.5 -21t-36.5 -37.5z" />
<glyph unicode="&#xd2;" horiz-adv-x="1531" d="M78 627q0 147 41.5 272t111 210.5t161.5 146t192.5 88.5t203.5 28q208 0 360.5 -83.5t230 -229t77.5 -334.5q0 -147 -41.5 -272t-111.5 -210.5t-162 -146t-192 -88.5t-204 -28q-208 0 -360 83.5t-229.5 229t-77.5 334.5zM414 711q0 -262 95 -417t271 -155q340 0 340 502 q0 261 -95 416t-271 155q-340 0 -340 -501zM543 1661q6 66 54.5 102.5t125.5 36.5q25 0 37 -2q31 -89 81 -147t136 -115l-31 -78q-164 17 -273 73.5t-130 129.5z" />
<glyph unicode="&#xd3;" horiz-adv-x="1531" d="M78 627q0 147 41.5 272t111 210.5t161.5 146t192.5 88.5t203.5 28q208 0 360.5 -83.5t230 -229t77.5 -334.5q0 -147 -41.5 -272t-111.5 -210.5t-162 -146t-192 -88.5t-204 -28q-208 0 -360 83.5t-229.5 229t-77.5 334.5zM414 711q0 -262 95 -417t271 -155q340 0 340 502 q0 261 -95 416t-271 155q-340 0 -340 -501zM565 1530q90 53 143 120.5t103 172.5q76 -21 120 -64.5t44 -103.5q0 -11 -4 -35q-26 -68 -137.5 -112t-221.5 -44h-24z" />
<glyph unicode="&#xd4;" horiz-adv-x="1531" d="M78 627q0 147 41.5 272t111 210.5t161.5 146t192.5 88.5t203.5 28q208 0 360.5 -83.5t230 -229t77.5 -334.5q0 -147 -41.5 -272t-111.5 -210.5t-162 -146t-192 -88.5t-204 -28q-208 0 -360 83.5t-229.5 229t-77.5 334.5zM414 711q0 -262 95 -417t271 -155q340 0 340 502 q0 261 -95 416t-271 155q-340 0 -340 -501zM442 1513l265 254h190q27 -74 85 -132.5t136 -94.5l-88 -78q-76 9 -163 53.5t-126 92.5l-225 -160z" />
<glyph unicode="&#xd5;" horiz-adv-x="1531" d="M78 627q0 147 41.5 272t111 210.5t161.5 146t192.5 88.5t203.5 28q208 0 360.5 -83.5t230 -229t77.5 -334.5q0 -147 -41.5 -272t-111.5 -210.5t-162 -146t-192 -88.5t-204 -28q-208 0 -360 83.5t-229.5 229t-77.5 334.5zM414 711q0 -262 95 -417t271 -155q340 0 340 502 q0 261 -95 416t-271 155q-340 0 -340 -501zM461 1556q27 80 84.5 143.5t138.5 63.5q37 0 69.5 -15.5t52.5 -34.5t49.5 -34.5t59.5 -15.5q27 0 50 11.5t32.5 20.5t36.5 38l66 -50q-27 -81 -84 -143.5t-139 -62.5q-42 0 -82 25t-76 50t-70 25q-29 0 -53 -11.5t-33.5 -21 t-36.5 -37.5z" />
<glyph unicode="&#xd6;" horiz-adv-x="1531" d="M78 627q0 147 41.5 272t111 210.5t161.5 146t192.5 88.5t203.5 28q208 0 360.5 -83.5t230 -229t77.5 -334.5q0 -147 -41.5 -272t-111.5 -210.5t-162 -146t-192 -88.5t-204 -28q-208 0 -360 83.5t-229.5 229t-77.5 334.5zM414 711q0 -262 95 -417t271 -155q340 0 340 502 q0 261 -95 416t-271 155q-340 0 -340 -501zM426 1614q0 60 41.5 101.5t101.5 41.5t102 -41.5t42 -101.5t-42 -102t-102 -42t-101.5 42t-41.5 102zM829 1614q0 60 42 101.5t102 41.5t101.5 -41.5t41.5 -101.5t-41.5 -102t-101.5 -42t-102 42t-42 102z" />
<glyph unicode="&#xd7;" horiz-adv-x="1167" d="M145 217l304 299l-304 301l134 135l305 -303l305 303l133 -135l-303 -301l303 -299l-135 -135l-303 301l-303 -301z" />
<glyph unicode="&#xd8;" horiz-adv-x="1531" d="M78 627q0 147 41.5 272t111 210.5t161.5 146t192.5 88.5t203.5 28q239 0 406 -110l115 139l96 -78l-117 -141q168 -177 168 -457q0 -147 -41.5 -272t-111.5 -210.5t-162 -146t-192 -88.5t-204 -28q-217 0 -376 92l-127 -156l-97 78l125 151q-192 177 -192 482zM414 711 q0 -199 51 -330l559 676q-96 155 -270 155q-340 0 -340 -501zM528 264q95 -125 252 -125q340 0 340 502q0 160 -39 291z" />
<glyph unicode="&#xd9;" horiz-adv-x="1533" d="M-4 1270q0 25 14 46t28 30l15 8q160 -4 285 -4l321 4q0 -8 -1.5 -21.5t-13.5 -45t-32 -50.5l-129 -29v-649q0 -96 15 -168.5t42 -120t67.5 -77.5t88 -42t107.5 -12q73 0 126 20t86 54t52 89.5t26 117t7 145.5v643l-166 29q-6 18 -6 33q0 25 14 46t28 30l15 8 q113 -4 248 -4l315 4q0 -8 -1.5 -21.5t-16 -45t-39.5 -50.5q-78 -17 -133 -29v-594q0 -117 -19.5 -212t-64 -174.5t-114 -133.5t-172.5 -84t-236 -30q-300 0 -434 129t-134 399v700l-182 29q-6 18 -6 33zM559 1661q6 66 54.5 102.5t125.5 36.5q25 0 37 -2q31 -89 81 -147 t136 -115l-30 -78q-164 17 -273.5 73.5t-130.5 129.5z" />
<glyph unicode="&#xda;" horiz-adv-x="1533" d="M-4 1270q0 25 14 46t28 30l15 8q160 -4 285 -4l321 4q0 -8 -1.5 -21.5t-13.5 -45t-32 -50.5l-129 -29v-649q0 -96 15 -168.5t42 -120t67.5 -77.5t88 -42t107.5 -12q73 0 126 20t86 54t52 89.5t26 117t7 145.5v643l-166 29q-6 18 -6 33q0 25 14 46t28 30l15 8 q113 -4 248 -4l315 4q0 -8 -1.5 -21.5t-16 -45t-39.5 -50.5q-78 -17 -133 -29v-594q0 -117 -19.5 -212t-64 -174.5t-114 -133.5t-172.5 -84t-236 -30q-300 0 -434 129t-134 399v700l-182 29q-6 18 -6 33zM580 1530q90 53 142.5 120t102.5 173q76 -21 120 -64.5t44 -103.5 q0 -11 -4 -35q-26 -68 -137 -112t-221 -44h-25z" />
<glyph unicode="&#xdb;" horiz-adv-x="1533" d="M-4 1270q0 25 14 46t28 30l15 8q160 -4 285 -4l321 4q0 -8 -1.5 -21.5t-13.5 -45t-32 -50.5l-129 -29v-649q0 -96 15 -168.5t42 -120t67.5 -77.5t88 -42t107.5 -12q73 0 126 20t86 54t52 89.5t26 117t7 145.5v643l-166 29q-6 18 -6 33q0 25 14 46t28 30l15 8 q113 -4 248 -4l315 4q0 -8 -1.5 -21.5t-16 -45t-39.5 -50.5q-78 -17 -133 -29v-594q0 -117 -19.5 -212t-64 -174.5t-114 -133.5t-172.5 -84t-236 -30q-300 0 -434 129t-134 399v700l-182 29q-6 18 -6 33zM463 1513l264 254h191q27 -74 85 -132.5t136 -94.5l-88 -78 q-76 9 -163 53.5t-126 92.5l-225 -160z" />
<glyph unicode="&#xdc;" horiz-adv-x="1533" d="M-4 1270q0 25 14 46t28 30l15 8q160 -4 285 -4l321 4q0 -8 -1.5 -21.5t-13.5 -45t-32 -50.5l-129 -29v-649q0 -96 15 -168.5t42 -120t67.5 -77.5t88 -42t107.5 -12q73 0 126 20t86 54t52 89.5t26 117t7 145.5v643l-166 29q-6 18 -6 33q0 25 14 46t28 30l15 8 q113 -4 248 -4l315 4q0 -8 -1.5 -21.5t-16 -45t-39.5 -50.5q-78 -17 -133 -29v-594q0 -117 -19.5 -212t-64 -174.5t-114 -133.5t-172.5 -84t-236 -30q-300 0 -434 129t-134 399v700l-182 29q-6 18 -6 33zM463 1614q0 60 41.5 101.5t101.5 41.5t102 -41.5t42 -101.5t-42 -102 t-102 -42t-101.5 42t-41.5 102zM866 1614q0 60 42 101.5t102 41.5t101.5 -41.5t41.5 -101.5t-41.5 -102t-101.5 -42t-102 42t-42 102z" />
<glyph unicode="&#xdd;" horiz-adv-x="1302" d="M-16 1270q0 25 14 46t28 30l15 8q137 -4 262 -4l334 4q-2 -70 -47 -117q-76 -17 -121 -29l240 -489l239 489l-153 29q-7 21 -7 33q0 25 14.5 46t29.5 30l14 8q82 -4 207 -4l293 4q-3 -70 -48 -117q-78 -17 -133 -29l-354 -659v-404l180 -32q0 -8 -1.5 -20.5t-13 -43.5 t-32.5 -53q-195 8 -293 8l-321 -8q-6 18 -6 33q0 25 14 46t28 29l15 9l131 32v404l-360 659l-162 29q-6 18 -6 33zM508 1530q90 53 143 120.5t103 172.5q76 -21 120 -64.5t44 -103.5q0 -5 -5 -35q-26 -68 -137 -112t-221 -44h-25z" />
<glyph unicode="&#xde;" horiz-adv-x="1259" d="M55 29q0 25 14.5 46t28.5 29l15 9l131 32v1063l-183 29q-6 18 -6 33q0 25 14.5 46t28.5 30l15 8q159 -4 284 -4l326 4q0 -8 -1.5 -20.5t-13 -43.5t-32.5 -53q-78 -17 -133 -29v-106h157q244 0 368 -93.5t124 -275.5q0 -86 -34.5 -160.5t-94.5 -128t-139 -91t-168 -56 t-183 -18.5h-30v-134l180 -32q0 -7 -1.5 -19.5t-13 -43.5t-32.5 -54q-199 8 -297 8l-318 -8q-6 18 -6 33zM543 418h28q154 0 225.5 67.5t71.5 223.5q0 262 -223 262h-102v-553z" />
<glyph unicode="&#xdf;" horiz-adv-x="1304" d="M43 901l147 84v94q0 81 35.5 156.5t100.5 136t165 97t220 36.5q75 0 146 -14.5t134 -44.5t101 -82t38 -119q0 -53 -20.5 -100t-42 -71t-57.5 -56q-53 -47 -72.5 -70.5t-19.5 -50.5q0 -24 21.5 -55t42 -51t56.5 -52q38 -32 56 -49t50.5 -49.5t49.5 -59t36 -63t27.5 -77.5 t8.5 -87q0 -92 -32 -165t-87.5 -118t-126.5 -68t-152 -23q-154 0 -276 34q-8 79 -8 189q0 75 2 106q30 21 63 21q27 0 49 -11q24 -138 60 -208q32 -7 80 -7q69 0 106 44.5t37 132.5q0 49 -15 92.5t-44 82t-56 66.5t-67 66.5t-62 62.5q-50 55 -69 90t-19 93q0 38 18 73t60 87 t53 67q51 71 51 168q0 53 -40.5 97t-116.5 44q-98 0 -146.5 -55.5t-48.5 -177.5v-1137h-59l-361 -4q-6 15 -6 31q0 24 14.5 43.5t28.5 27.5l15 8l79 25v703h-131z" />
<glyph unicode="&#xe0;" horiz-adv-x="1032" d="M55 246q0 121 95.5 209t295.5 123l158 26v27q0 104 -37 146t-149 42q-68 0 -142.5 -19t-119.5 -42l-37 106q60 47 178.5 93.5t249.5 46.5q84 0 147 -19.5t99.5 -50t58.5 -74.5t29.5 -86.5t7.5 -93.5q0 -68 -2 -214.5t-2 -227.5q0 -84 21 -112t85 -28h19l10 -69 q-115 -49 -213 -49q-90 0 -135 30.5t-60 98.5q-41 -38 -123.5 -83.5t-164.5 -45.5q-118 0 -193.5 72t-75.5 194zM334 1366q3 71 60.5 110.5t148.5 39.5q20 -119 50.5 -198t98.5 -151l-37 -55q-109 25 -210.5 101.5t-110.5 152.5zM348 307q0 -58 31.5 -96.5t97.5 -38.5 q65 0 125 27q-2 33 -2 80l2 215l-100 -25q-90 -22 -122 -64t-32 -98z" />
<glyph unicode="&#xe1;" horiz-adv-x="1032" d="M55 246q0 121 95.5 209t295.5 123l158 26v27q0 104 -37 146t-149 42q-68 0 -142.5 -19t-119.5 -42l-37 106q60 47 178.5 93.5t249.5 46.5q84 0 147 -19.5t99.5 -50t58.5 -74.5t29.5 -86.5t7.5 -93.5q0 -68 -2 -214.5t-2 -227.5q0 -84 21 -112t85 -28h19l10 -69 q-115 -49 -213 -49q-90 0 -135 30.5t-60 98.5q-41 -38 -123.5 -83.5t-164.5 -45.5q-118 0 -193.5 72t-75.5 194zM348 307q0 -58 31.5 -96.5t97.5 -38.5q65 0 125 27q-2 33 -2 80l2 215l-100 -25q-90 -22 -122 -64t-32 -98zM350 1167q71 76 104 155.5t52 193.5 q193 0 215 -156q-7 -56 -62 -110t-126.5 -89t-143.5 -51z" />
<glyph unicode="&#xe2;" horiz-adv-x="1032" d="M55 246q0 121 95.5 209t295.5 123l158 26v27q0 104 -37 146t-149 42q-68 0 -142.5 -19t-119.5 -42l-37 106q60 47 178.5 93.5t249.5 46.5q84 0 147 -19.5t99.5 -50t58.5 -74.5t29.5 -86.5t7.5 -93.5q0 -68 -2 -214.5t-2 -227.5q0 -84 21 -112t85 -28h19l10 -69 q-115 -49 -213 -49q-90 0 -135 30.5t-60 98.5q-41 -38 -123.5 -83.5t-164.5 -45.5q-118 0 -193.5 72t-75.5 194zM213 1141l211 311l170 57l37 -24q84 -223 190 -326l-94 -69q-62 25 -126.5 83.5t-106.5 122.5l-199 -213zM348 307q0 -58 31.5 -96.5t97.5 -38.5q65 0 125 27 q-2 33 -2 80l2 215l-100 -25q-90 -22 -122 -64t-32 -98z" />
<glyph unicode="&#xe3;" horiz-adv-x="1032" d="M55 246q0 121 95.5 209t295.5 123l158 26v27q0 104 -37 146t-149 42q-68 0 -142.5 -19t-119.5 -42l-37 106q60 47 178.5 93.5t249.5 46.5q84 0 147 -19.5t99.5 -50t58.5 -74.5t29.5 -86.5t7.5 -93.5q0 -68 -2 -214.5t-2 -227.5q0 -84 21 -112t85 -28h19l10 -69 q-115 -49 -213 -49q-90 0 -135 30.5t-60 98.5q-41 -38 -123.5 -83.5t-164.5 -45.5q-118 0 -193.5 72t-75.5 194zM197 1245q27 80 84.5 143.5t138.5 63.5q37 0 69.5 -15.5t52.5 -34.5t49.5 -34.5t59.5 -15.5q27 0 49.5 11t33 21t36.5 37l66 -49q-27 -81 -84.5 -144 t-139.5 -63q-34 0 -66.5 16t-54 34.5t-50.5 34.5t-56 16q-29 0 -53 -11.5t-33.5 -21t-36.5 -37.5zM348 307q0 -58 31.5 -96.5t97.5 -38.5q65 0 125 27q-2 33 -2 80l2 215l-100 -25q-90 -22 -122 -64t-32 -98z" />
<glyph unicode="&#xe4;" horiz-adv-x="1032" d="M55 246q0 121 95.5 209t295.5 123l158 26v27q0 104 -37 146t-149 42q-68 0 -142.5 -19t-119.5 -42l-37 106q60 47 178.5 93.5t249.5 46.5q84 0 147 -19.5t99.5 -50t58.5 -74.5t29.5 -86.5t7.5 -93.5q0 -68 -2 -214.5t-2 -227.5q0 -84 21 -112t85 -28h19l10 -69 q-115 -49 -213 -49q-90 0 -135 30.5t-60 98.5q-41 -38 -123.5 -83.5t-164.5 -45.5q-118 0 -193.5 72t-75.5 194zM168 1325q0 60 41.5 101.5t101.5 41.5t102 -41.5t42 -101.5t-42 -101.5t-102 -41.5t-101.5 41.5t-41.5 101.5zM348 307q0 -58 31.5 -96.5t97.5 -38.5 q65 0 125 27q-2 33 -2 80l2 215l-100 -25q-90 -22 -122 -64t-32 -98zM571 1325q0 60 42 101.5t102 41.5t101.5 -41.5t41.5 -101.5t-41.5 -101.5t-101.5 -41.5t-102 41.5t-42 101.5z" />
<glyph unicode="&#xe5;" horiz-adv-x="1032" d="M55 246q0 121 95.5 209t295.5 123l158 26v27q0 104 -37 146t-149 42q-68 0 -142.5 -19t-119.5 -42l-37 106q60 47 178.5 93.5t249.5 46.5q84 0 147 -19.5t99.5 -50t58.5 -74.5t29.5 -86.5t7.5 -93.5q0 -68 -2 -214.5t-2 -227.5q0 -84 21 -112t85 -28h19l10 -69 q-115 -49 -213 -49q-90 0 -135 30.5t-60 98.5q-41 -38 -123.5 -83.5t-164.5 -45.5q-118 0 -193.5 72t-75.5 194zM299 1325q0 89 60 151t167 62t167.5 -62t60.5 -151t-60.5 -151t-167.5 -62t-167 62t-60 151zM348 307q0 -58 31.5 -96.5t97.5 -38.5q65 0 125 27q-2 33 -2 80 l2 215l-100 -25q-90 -22 -122 -64t-32 -98zM440 1325q0 -44 22 -71t64 -27q44 0 65 27t21 71t-21 71t-65 27t-65 -27t-21 -71z" />
<glyph unicode="&#xe6;" horiz-adv-x="1525" d="M53 246q0 122 96.5 209.5t301.5 122.5l157 26v29q0 99 -40 142.5t-146 43.5q-69 0 -145 -19t-123 -42l-37 106q62 47 182.5 93.5t251.5 46.5q162 0 240 -115q134 115 299 115q170 0 266 -94.5t96 -245.5q0 -116 -27 -203l-538 -4q9 -158 75.5 -227.5t204.5 -69.5 q61 0 129.5 13.5t116.5 33.5l37 -103q-20 -15 -51 -31.5t-85 -39.5t-127.5 -38t-150.5 -15q-243 0 -352 145q-165 -145 -348 -145q-132 0 -207.5 71t-75.5 195zM346 307q0 -135 143 -135q60 0 148 37q-41 96 -41 244v36l-90 -20q-49 -12 -82.5 -30t-49.5 -41t-22 -44t-6 -47 zM889 578l258 22q10 42 10 94q0 32 -3.5 56t-13.5 51t-34 42t-59 15q-145 0 -158 -280z" />
<glyph unicode="&#xe7;" horiz-adv-x="954" d="M53 459q0 123 47 227.5t125 173t177 106.5t204 38q188 0 287 -72q14 -32 14 -68q0 -57 -34 -110t-78 -78q-35 53 -98.5 104t-137.5 51q-90 0 -139 -77t-49 -228q0 -184 69.5 -275t198.5 -91q118 0 221 45l37 -103q-37 -30 -131.5 -68.5t-204.5 -49.5l-55 -146 q58 25 115 25q70 0 113.5 -38t43.5 -108q0 -63 -37.5 -110t-101.5 -72t-135 -37t-150 -12l-8 96q50 2 85 8t66 17.5t46.5 33.5t15.5 54q0 65 -86 65q-28 0 -63 -10l-43 35l59 199q-77 10 -142 42t-118 88t-83 144.5t-30 200.5z" />
<glyph unicode="&#xe8;" horiz-adv-x="1003" d="M53 453q0 136 43.5 244t117 173.5t163 99.5t188.5 34q170 0 266.5 -94.5t96.5 -245.5q0 -116 -27 -203l-536 -4q7 -157 73.5 -227t204.5 -70q61 0 129.5 13.5t116.5 33.5l37 -103q-20 -15 -51 -31.5t-85 -39.5t-127.5 -38t-150.5 -15q-99 0 -181 28.5t-145 84.5t-98 148 t-35 212zM324 1366q3 71 60 110.5t148 39.5q20 -118 51 -197.5t99 -151.5l-37 -55q-109 25 -210.5 101.5t-110.5 152.5zM365 578l258 22q10 42 10 94q0 164 -111 164q-144 0 -157 -280z" />
<glyph unicode="&#xe9;" horiz-adv-x="1003" d="M53 453q0 136 43.5 244t117 173.5t163 99.5t188.5 34q170 0 266.5 -94.5t96.5 -245.5q0 -116 -27 -203l-536 -4q7 -157 73.5 -227t204.5 -70q61 0 129.5 13.5t116.5 33.5l37 -103q-20 -15 -51 -31.5t-85 -39.5t-127.5 -38t-150.5 -15q-99 0 -181 28.5t-145 84.5t-98 148 t-35 212zM354 1167q71 76 104 155.5t52 193.5q193 0 215 -156q-7 -56 -62 -110t-126.5 -89t-143.5 -51zM365 578l258 22q10 42 10 94q0 164 -111 164q-144 0 -157 -280z" />
<glyph unicode="&#xea;" horiz-adv-x="1003" d="M53 453q0 136 43.5 244t117 173.5t163 99.5t188.5 34q170 0 266.5 -94.5t96.5 -245.5q0 -116 -27 -203l-536 -4q7 -157 73.5 -227t204.5 -70q61 0 129.5 13.5t116.5 33.5l37 -103q-20 -15 -51 -31.5t-85 -39.5t-127.5 -38t-150.5 -15q-99 0 -181 28.5t-145 84.5t-98 148 t-35 212zM225 1141l211 311l170 57l37 -24q84 -221 191 -326l-95 -69q-62 25 -126.5 83.5t-106.5 122.5l-199 -213zM365 578l258 22q10 42 10 94q0 164 -111 164q-144 0 -157 -280z" />
<glyph unicode="&#xeb;" horiz-adv-x="1003" d="M53 453q0 136 43.5 244t117 173.5t163 99.5t188.5 34q170 0 266.5 -94.5t96.5 -245.5q0 -116 -27 -203l-536 -4q7 -157 73.5 -227t204.5 -70q61 0 129.5 13.5t116.5 33.5l37 -103q-20 -15 -51 -31.5t-85 -39.5t-127.5 -38t-150.5 -15q-99 0 -181 28.5t-145 84.5t-98 148 t-35 212zM197 1325q0 60 41.5 101.5t101.5 41.5t101.5 -41.5t41.5 -101.5t-41.5 -101.5t-101.5 -41.5t-101.5 41.5t-41.5 101.5zM365 578l258 22q10 42 10 94q0 164 -111 164q-144 0 -157 -280zM600 1325q0 60 41.5 101.5t101.5 41.5t102 -41.5t42 -101.5t-42 -101.5 t-102 -41.5t-101.5 41.5t-41.5 101.5z" />
<glyph unicode="&#xec;" horiz-adv-x="636" d="M23 887q0 24 13.5 44t26.5 28l13 8q213 14 403 30v-866q26 -6 63.5 -12.5t61.5 -9.5l25 -3q-2 -53 -49 -110q-168 8 -248 8l-281 -8q-6 15 -6 31q0 24 14 43.5t29 27.5l14 8l88 25v703l-163 26q-4 12 -4 27zM117 1366q3 71 60.5 110.5t148.5 39.5q20 -119 50.5 -198 t98.5 -151l-37 -55q-109 25 -210.5 101.5t-110.5 152.5z" />
<glyph unicode="&#xed;" horiz-adv-x="636" d="M23 887q0 24 13.5 44t26.5 28l13 8q213 14 403 30v-866q26 -6 63.5 -12.5t61.5 -9.5l25 -3q-2 -53 -49 -110q-168 8 -248 8l-281 -8q-6 15 -6 31q0 24 14 43.5t29 27.5l14 8l88 25v703l-163 26q-4 12 -4 27zM125 1167q71 76 104 155.5t52 193.5q193 0 215 -156 q-7 -56 -62 -110t-126.5 -89t-143.5 -51z" />
<glyph unicode="&#xee;" horiz-adv-x="636" d="M2 1141l211 311l170 57l37 -24q84 -223 190 -326l-94 -69q-62 25 -126.5 83.5t-106.5 122.5l-199 -213zM23 887q0 24 13.5 44t26.5 28l13 8q213 14 403 30v-866q26 -6 63.5 -12.5t61.5 -9.5l25 -3q-2 -53 -49 -110q-168 8 -248 8l-281 -8q-6 15 -6 31q0 24 14 43.5 t29 27.5l14 8l88 25v703l-163 26q-4 12 -4 27z" />
<glyph unicode="&#xef;" horiz-adv-x="636" d="M-35 1325q0 60 42 101.5t102 41.5t101.5 -41.5t41.5 -101.5t-41.5 -101.5t-101.5 -41.5t-102 41.5t-42 101.5zM23 887q0 24 13.5 44t26.5 28l13 8q213 14 403 30v-866q26 -6 63.5 -12.5t61.5 -9.5l25 -3q-2 -53 -49 -110q-168 8 -248 8l-281 -8q-6 15 -6 31q0 24 14 43.5 t29 27.5l14 8l88 25v703l-163 26q-4 12 -4 27zM369 1325q0 60 41.5 101.5t101.5 41.5t101.5 -41.5t41.5 -101.5t-41.5 -101.5t-101.5 -41.5t-101.5 41.5t-41.5 101.5z" />
<glyph unicode="&#xf0;" horiz-adv-x="1089" d="M53 446q0 138 38 244.5t102 168.5t138.5 93t155.5 31q161 0 248 -96q-41 167 -160 289l-296 -109q-17 4 -29 27t-12 47q0 19 8 35l229 84q-115 79 -272 124l47 125q237 -55 418 -178l254 94q16 -6 26 -29t10 -44q0 -17 -6 -35l-182 -68q277 -257 277 -678 q0 -147 -40.5 -262t-111 -185.5t-161 -107t-195.5 -36.5q-80 0 -149.5 14.5t-132 49.5t-107.5 87.5t-71 133t-26 181.5zM371 498q0 -175 50 -270t146 -95q37 0 66 15t54 52t38.5 107.5t13.5 171.5q0 346 -192 346q-42 0 -72 -13.5t-54.5 -48t-37 -101t-12.5 -164.5z" />
<glyph unicode="&#xf1;" horiz-adv-x="1245" d="M23 887q0 24 13.5 44t26.5 28l13 8q213 14 389 30l4 -133q2 1 26 18.5t42 29.5t52.5 31t64.5 31t69 21t76 9q70 0 122.5 -21t83.5 -54.5t50 -82.5t25.5 -97.5t6.5 -107.5v-510q26 -6 63.5 -12.5t61.5 -9.5l25 -3q-2 -53 -49 -110q-168 8 -248 8l-246 -8q-6 15 -6 31 q0 24 14 43.5t28 27.5l15 8l54 25v453q0 120 -44 166.5t-141 46.5q-75 0 -135 -29v-637q24 -6 57.5 -12.5t55.5 -9.5l22 -3q-2 -53 -49 -110q-161 8 -237 8l-277 -8q-6 15 -6 31q0 24 14 43.5t29 27.5l14 8l88 25v703l-163 26q-4 12 -4 27zM303 1245q27 80 84.5 143.5 t138.5 63.5q37 0 69.5 -15.5t53 -34.5t50 -34.5t59.5 -15.5q27 0 49.5 11t33 21t36.5 37l65 -49q-27 -81 -84 -144t-139 -63q-34 0 -66.5 16t-54 34.5t-50.5 34.5t-56 16q-29 0 -53 -11.5t-33.5 -21t-36.5 -37.5z" />
<glyph unicode="&#xf2;" d="M53 453q0 136 45.5 244.5t120.5 173.5t165 99t187 34q99 0 183.5 -26t154 -80t109 -148t39.5 -220q0 -137 -45.5 -245.5t-120.5 -173t-165 -98t-187 -33.5q-79 0 -148.5 15.5t-132 51t-107.5 89t-71.5 135t-26.5 182.5zM371 514q0 -175 47.5 -278t146.5 -103q84 0 129 78 t45 258q0 175 -47.5 278t-146.5 103q-56 0 -93 -29t-59 -105t-22 -202zM375 1366q3 71 60.5 110.5t148.5 39.5q20 -119 50.5 -198t98.5 -151l-37 -55q-109 25 -210.5 101.5t-110.5 152.5z" />
<glyph unicode="&#xf3;" d="M53 453q0 136 45.5 244.5t120.5 173.5t165 99t187 34q99 0 183.5 -26t154 -80t109 -148t39.5 -220q0 -137 -45.5 -245.5t-120.5 -173t-165 -98t-187 -33.5q-79 0 -148.5 15.5t-132 51t-107.5 89t-71.5 135t-26.5 182.5zM371 514q0 -175 47.5 -278t146.5 -103q84 0 129 78 t45 258q0 175 -47.5 278t-146.5 103q-56 0 -93 -29t-59 -105t-22 -202zM373 1167q71 76 103 155t52 194q193 0 215 -156q-10 -83 -113 -153.5t-218 -96.5z" />
<glyph unicode="&#xf4;" d="M53 453q0 136 45.5 244.5t120.5 173.5t165 99t187 34q99 0 183.5 -26t154 -80t109 -148t39.5 -220q0 -137 -45.5 -245.5t-120.5 -173t-165 -98t-187 -33.5q-79 0 -148.5 15.5t-132 51t-107.5 89t-71.5 135t-26.5 182.5zM250 1141l211 311l170 57l37 -24q84 -223 190 -326 l-94 -69q-62 25 -127 84t-107 122l-198 -213zM371 514q0 -175 47.5 -278t146.5 -103q84 0 129 78t45 258q0 175 -47.5 278t-146.5 103q-56 0 -93 -29t-59 -105t-22 -202z" />
<glyph unicode="&#xf5;" d="M53 453q0 136 45.5 244.5t120.5 173.5t165 99t187 34q99 0 183.5 -26t154 -80t109 -148t39.5 -220q0 -137 -45.5 -245.5t-120.5 -173t-165 -98t-187 -33.5q-79 0 -148.5 15.5t-132 51t-107.5 89t-71.5 135t-26.5 182.5zM244 1245q27 80 84.5 143.5t138.5 63.5 q37 0 69.5 -15.5t52.5 -34.5t49.5 -34.5t59.5 -15.5q27 0 49.5 11t33 21t36.5 37l66 -49q-27 -81 -84.5 -144t-139.5 -63q-34 0 -66.5 16t-54 34.5t-50.5 34.5t-56 16q-29 0 -53 -11.5t-33.5 -21t-36.5 -37.5zM371 514q0 -175 47.5 -278t146.5 -103q84 0 129 78t45 258 q0 175 -47.5 278t-146.5 103q-56 0 -93 -29t-59 -105t-22 -202z" />
<glyph unicode="&#xf6;" d="M53 453q0 136 45.5 244.5t120.5 173.5t165 99t187 34q99 0 183.5 -26t154 -80t109 -148t39.5 -220q0 -137 -45.5 -245.5t-120.5 -173t-165 -98t-187 -33.5q-79 0 -148.5 15.5t-132 51t-107.5 89t-71.5 135t-26.5 182.5zM209 1325q0 60 41.5 101.5t101.5 41.5t102 -41.5 t42 -101.5t-42 -101.5t-102 -41.5t-101.5 41.5t-41.5 101.5zM371 514q0 -175 47.5 -278t146.5 -103q84 0 129 78t45 258q0 175 -47.5 278t-146.5 103q-56 0 -93 -29t-59 -105t-22 -202zM612 1325q0 60 42 101.5t102 41.5t101.5 -41.5t41.5 -101.5t-41.5 -101.5t-101.5 -41.5 t-102 41.5t-42 101.5z" />
<glyph unicode="&#xf7;" horiz-adv-x="1183" d="M145 420v188h893v-188h-893zM453 143q0 60 38.5 101t98.5 41q61 0 102 -40.5t41 -99.5q0 -62 -41 -103.5t-102 -41.5t-99 40.5t-38 102.5zM453 862q0 60 38.5 101t98.5 41q61 0 102 -40.5t41 -99.5q0 -62 -41 -103.5t-102 -41.5t-99 40.5t-38 102.5z" />
<glyph unicode="&#xf8;" d="M53 453q0 136 45.5 244.5t120.5 173.5t165 99t187 34q180 0 299 -78l78 94l76 -64l-78 -96q111 -114 111 -330q0 -137 -45.5 -245.5t-120.5 -173t-165 -98t-187 -33.5q-151 0 -265 57l-96 -119l-76 64l91 110q-140 120 -140 361zM371 514q0 -113 16 -184l315 389 q-50 131 -157 131q-56 0 -93 -29t-59 -105t-22 -202zM426 221q50 -88 139 -88q84 0 129 78t45 258q0 49 -8 127z" />
<glyph unicode="&#xf9;" horiz-adv-x="1218" d="M8 887q0 15 5.5 28.5t13 22.5t15.5 16t14 10l5 3q197 14 383 30v-598q0 -120 44 -166.5t141 -46.5q75 0 135 29v619l-154 26q-4 8 -4 27q0 15 5.5 28.5t13 22.5t15.5 16t14 10l5 3q208 14 394 30v-847l164 -27q4 -12 4 -27q0 -24 -13.5 -44t-27.5 -28l-13 -8 q-213 -10 -389 -26l-4 129q-1 -1 -26 -18.5t-42.5 -29t-52 -30.5t-64.5 -31t-69 -21t-76 -9q-70 0 -122.5 21t-83.5 54t-50 82t-25.5 97.5t-6.5 107.5v492l-144 26q-4 12 -4 27zM420 1366q3 71 60.5 110.5t148.5 39.5q20 -119 50.5 -198t98.5 -151l-37 -55 q-109 25 -210.5 101.5t-110.5 152.5z" />
<glyph unicode="&#xfa;" horiz-adv-x="1218" d="M8 887q0 15 5.5 28.5t13 22.5t15.5 16t14 10l5 3q197 14 383 30v-598q0 -120 44 -166.5t141 -46.5q75 0 135 29v619l-154 26q-4 8 -4 27q0 15 5.5 28.5t13 22.5t15.5 16t14 10l5 3q208 14 394 30v-847l164 -27q4 -12 4 -27q0 -24 -13.5 -44t-27.5 -28l-13 -8 q-213 -10 -389 -26l-4 129q-1 -1 -26 -18.5t-42.5 -29t-52 -30.5t-64.5 -31t-69 -21t-76 -9q-70 0 -122.5 21t-83.5 54t-50 82t-25.5 97.5t-6.5 107.5v492l-144 26q-4 12 -4 27zM467 1167q71 76 104 155.5t52 193.5q193 0 215 -156q-7 -56 -62 -110t-126.5 -89t-143.5 -51z " />
<glyph unicode="&#xfb;" horiz-adv-x="1218" d="M8 887q0 15 5.5 28.5t13 22.5t15.5 16t14 10l5 3q197 14 383 30v-598q0 -120 44 -166.5t141 -46.5q75 0 135 29v619l-154 26q-4 8 -4 27q0 15 5.5 28.5t13 22.5t15.5 16t14 10l5 3q208 14 394 30v-847l164 -27q4 -12 4 -27q0 -24 -13.5 -44t-27.5 -28l-13 -8 q-213 -10 -389 -26l-4 129q-1 -1 -26 -18.5t-42.5 -29t-52 -30.5t-64.5 -31t-69 -21t-76 -9q-70 0 -122.5 21t-83.5 54t-50 82t-25.5 97.5t-6.5 107.5v492l-144 26q-4 12 -4 27zM309 1141l211 311l170 57l37 -24q84 -221 191 -326l-95 -69q-62 25 -126.5 83.5t-106.5 122.5 l-199 -213z" />
<glyph unicode="&#xfc;" horiz-adv-x="1218" d="M8 887q0 15 5.5 28.5t13 22.5t15.5 16t14 10l5 3q197 14 383 30v-598q0 -120 44 -166.5t141 -46.5q75 0 135 29v619l-154 26q-4 8 -4 27q0 15 5.5 28.5t13 22.5t15.5 16t14 10l5 3q208 14 394 30v-847l164 -27q4 -12 4 -27q0 -24 -13.5 -44t-27.5 -28l-13 -8 q-213 -10 -389 -26l-4 129q-1 -1 -26 -18.5t-42.5 -29t-52 -30.5t-64.5 -31t-69 -21t-76 -9q-70 0 -122.5 21t-83.5 54t-50 82t-25.5 97.5t-6.5 107.5v492l-144 26q-4 12 -4 27zM258 1325q0 60 41.5 101.5t101.5 41.5t102 -41.5t42 -101.5t-42 -101.5t-102 -41.5 t-101.5 41.5t-41.5 101.5zM662 1325q0 60 41.5 101.5t101.5 41.5t101.5 -41.5t41.5 -101.5t-41.5 -101.5t-101.5 -41.5t-101.5 41.5t-41.5 101.5z" />
<glyph unicode="&#xfd;" horiz-adv-x="1110" d="M-33 901q0 24 14.5 43t28.5 26l15 7q151 -2 239 -2l314 2q-11 -50 -58 -107l-102 -39l200 -516l203 516l-139 39q-6 15 -6 31q0 15 6 28t14 21.5t16.5 15t14.5 8.5l6 3q115 -2 197 -2l235 2q-6 -50 -53 -107l-94 -39l-340 -804q-190 -450 -313 -527q-10 -2 -31 -2 q-83 0 -144 49.5t-73 128.5q44 9 89.5 27.5t98 52.5t97.5 90.5t71 128.5l8 23l-379 833l-129 39q-6 15 -6 31zM438 1167q71 76 104 155.5t52 193.5q193 0 215 -156q-7 -56 -62 -110t-126.5 -89t-143.5 -51z" />
<glyph unicode="&#xfe;" horiz-adv-x="1167" d="M4 1384q0 15 5.5 28.5t13.5 22.5t15.5 16t13.5 10l5 3q204 15 394 31v-621q1 1 26.5 20t39 28.5t44.5 27.5t54.5 28t56 18t61.5 8q57 0 110.5 -15.5t103.5 -50.5t87 -85.5t59.5 -127.5t22.5 -170q0 -122 -36.5 -221.5t-95 -163t-134.5 -107t-150.5 -61.5t-148.5 -18 q-52 0 -100 6v-352q26 -6 63.5 -12.5t61.5 -9.5l24 -3q-2 -54 -49 -111q-168 9 -248 9l-280 -9q-7 18 -7 31q0 24 14.5 44t29.5 28l14 8l88 25v1693l-154 27q-4 12 -4 26zM451 166q48 -25 129 -25q66 0 112 26t69 74.5t32.5 104t9.5 129.5q0 71 -12.5 127.5t-40 101 t-74.5 69t-111 24.5q-59 0 -114 -25v-606z" />
<glyph unicode="&#xff;" horiz-adv-x="1110" d="M-33 901q0 24 14.5 43t28.5 26l15 7q151 -2 239 -2l314 2q-11 -50 -58 -107l-102 -39l200 -516l203 516l-139 39q-6 15 -6 31q0 15 6 28t14 21.5t16.5 15t14.5 8.5l6 3q115 -2 197 -2l235 2q-6 -50 -53 -107l-94 -39l-340 -804q-190 -450 -313 -527q-10 -2 -31 -2 q-83 0 -144 49.5t-73 128.5q44 9 89.5 27.5t98 52.5t97.5 90.5t71 128.5l8 23l-379 833l-129 39q-6 15 -6 31zM250 1325q0 60 41.5 101.5t101.5 41.5t102 -41.5t42 -101.5t-42 -101.5t-102 -41.5t-101.5 41.5t-41.5 101.5zM653 1325q0 60 42 101.5t102 41.5t101.5 -41.5 t41.5 -101.5t-41.5 -101.5t-101.5 -41.5t-102 41.5t-42 101.5z" />
<glyph unicode="&#x152;" horiz-adv-x="1896" d="M76 621q0 147 41.5 272t111 211t161.5 146.5t192.5 89t203.5 28.5q90 0 193 -18h135l658 2q18 -129 18 -324v-47q-22 -25 -66 -25q-30 0 -59 13q-26 149 -59 217l-359 8v-432l395 16v-12q0 -43 -17 -83t-33 -59l-17 -18h-328v-444l375 8q29 62 57 231q30 17 60 17 q31 0 63 -21v-32q0 -177 -20 -369q-384 8 -674 8h-90q-155 -29 -275 -29q-208 0 -360 83t-229.5 228.5t-77.5 334.5zM412 705q0 -258 95 -411t271 -153q108 0 170 19v1016q-102 30 -168 30q-368 0 -368 -501z" />
<glyph unicode="&#x153;" horiz-adv-x="1679" d="M51 453q0 136 45.5 244.5t120.5 173.5t165 99t187 34q226 0 342 -144q66 72 152 108t180 36q170 0 266.5 -94.5t96.5 -245.5q0 -116 -27 -203l-539 -4q9 -158 76 -227.5t205 -69.5q61 0 129.5 13.5t116.5 33.5l37 -103q-20 -15 -51 -31.5t-85 -39.5t-127.5 -38 t-150.5 -15q-208 0 -322 141q-63 -69 -149 -105t-182 -36q-79 0 -148.5 15.5t-132 51t-107.5 89t-71.5 135t-26.5 182.5zM369 514q0 -175 47.5 -278t146.5 -103q84 0 129 78t45 258q0 175 -47.5 278t-146.5 103q-56 0 -93 -29t-59 -105t-22 -202zM1042 578l258 22 q11 46 11 94q0 164 -111 164q-145 0 -158 -280z" />
<glyph unicode="&#x178;" horiz-adv-x="1302" d="M-16 1270q0 25 14 46t28 30l15 8q137 -4 262 -4l334 4q-2 -70 -47 -117q-76 -17 -121 -29l240 -489l239 489l-153 29q-7 21 -7 33q0 25 14.5 46t29.5 30l14 8q82 -4 207 -4l293 4q-3 -70 -48 -117q-78 -17 -133 -29l-354 -659v-404l180 -32q0 -8 -1.5 -20.5t-13 -43.5 t-32.5 -53q-195 8 -293 8l-321 -8q-6 18 -6 33q0 25 14 46t28 29l15 9l131 32v404l-360 659l-162 29q-6 18 -6 33zM362 1614q0 60 42 101.5t102 41.5t101.5 -41.5t41.5 -101.5t-41.5 -102t-101.5 -42t-102 42t-42 102zM766 1614q0 60 41.5 101.5t101.5 41.5t102 -41.5 t42 -101.5t-42 -102t-102 -42t-101.5 42t-41.5 102z" />
<glyph unicode="&#x2c6;" horiz-adv-x="915" d="M154 1141l211 311l170 57l36 -24q84 -221 191 -326l-94 -69q-62 25 -127 84t-107 122l-198 -213z" />
<glyph unicode="&#x2dc;" horiz-adv-x="946" d="M154 1245q27 80 84.5 143.5t138.5 63.5q37 0 69.5 -15.5t52.5 -34.5t49.5 -34.5t59.5 -15.5q27 0 49.5 11t33 21t36.5 37l66 -49q-27 -81 -84.5 -144t-139.5 -63q-34 0 -66.5 16t-54 34.5t-50.5 34.5t-56 16q-29 0 -53 -11.5t-33.5 -21t-36.5 -37.5z" />
<glyph unicode="&#x2000;" horiz-adv-x="931" />
<glyph unicode="&#x2001;" horiz-adv-x="1862" />
<glyph unicode="&#x2002;" horiz-adv-x="931" />
<glyph unicode="&#x2003;" horiz-adv-x="1862" />
<glyph unicode="&#x2004;" horiz-adv-x="620" />
<glyph unicode="&#x2005;" horiz-adv-x="465" />
<glyph unicode="&#x2006;" horiz-adv-x="310" />
<glyph unicode="&#x2007;" horiz-adv-x="310" />
<glyph unicode="&#x2008;" horiz-adv-x="232" />
<glyph unicode="&#x2009;" horiz-adv-x="372" />
<glyph unicode="&#x200a;" horiz-adv-x="103" />
<glyph unicode="&#x2010;" horiz-adv-x="657" d="M82 502q0 77 31 147h456q6 -37 6 -67q0 -82 -30 -142h-457q-6 30 -6 62z" />
<glyph unicode="&#x2011;" horiz-adv-x="657" d="M82 502q0 77 31 147h456q6 -37 6 -67q0 -82 -30 -142h-457q-6 30 -6 62z" />
<glyph unicode="&#x2012;" horiz-adv-x="657" d="M82 502q0 77 31 147h456q6 -37 6 -67q0 -82 -30 -142h-457q-6 30 -6 62z" />
<glyph unicode="&#x2013;" horiz-adv-x="1320" d="M176 502q0 81 31 143h932q6 -24 6 -61q0 -82 -31 -144h-932q-6 24 -6 62z" />
<glyph unicode="&#x2014;" horiz-adv-x="1798" d="M176 502q0 81 31 143h1409q6 -24 6 -61q0 -82 -31 -144h-1409q-6 24 -6 62z" />
<glyph unicode="&#x2018;" horiz-adv-x="477" d="M72 1034q0 59 23.5 125.5t59.5 123t66.5 96t57.5 67.5l86 -62q-86 -137 -86 -260q0 -25 38.5 -51t88.5 -39q0 -25 -4.5 -51.5t-17 -60t-41 -58.5t-69.5 -33q-89 5 -145.5 57t-56.5 146z" />
<glyph unicode="&#x2019;" horiz-adv-x="477" d="M72 1243q0 26 4.5 52t16.5 59.5t40.5 58.5t69.5 33q90 -5 146.5 -57t56.5 -146q0 -59 -23.5 -125.5t-59.5 -123t-66.5 -96t-57.5 -67.5l-86 62q86 137 86 260q0 25 -38.5 51t-88.5 39z" />
<glyph unicode="&#x201a;" horiz-adv-x="483" d="M78 119q0 26 4.5 52t16.5 59.5t40.5 58.5t69.5 33q90 -5 146.5 -57t56.5 -146q0 -59 -23.5 -125.5t-59.5 -123t-66.5 -96t-57.5 -67.5l-86 62q86 137 86 260q0 25 -38.5 51t-88.5 39z" />
<glyph unicode="&#x201c;" horiz-adv-x="890" d="M72 1034q0 59 23.5 125.5t59.5 123t66.5 96t57.5 67.5l86 -62q-86 -137 -86 -260q0 -25 38.5 -51t88.5 -39q0 -25 -4.5 -51.5t-17 -60t-41 -58.5t-69.5 -33q-89 5 -145.5 57t-56.5 146zM479 1034q0 59 23.5 125.5t59.5 123t66.5 96t57.5 67.5l86 -62q-86 -137 -86 -260 q0 -25 38.5 -51t88.5 -39q0 -26 -4.5 -52t-16.5 -59.5t-40.5 -58.5t-69.5 -33q-90 5 -146.5 57t-56.5 146z" />
<glyph unicode="&#x201d;" horiz-adv-x="890" d="M78 1243q0 26 4.5 52t16.5 59.5t40.5 58.5t69.5 33q90 -5 146.5 -57t56.5 -146q0 -59 -23.5 -125.5t-59.5 -123t-66.5 -96t-57.5 -67.5l-86 62q86 137 86 260q0 25 -38.5 51t-88.5 39zM485 1243q0 26 4.5 52t16.5 59.5t40.5 58.5t69.5 33q90 -5 146.5 -57t56.5 -146 q0 -59 -23.5 -125.5t-59.5 -123t-66.5 -96t-57.5 -67.5l-86 62q86 137 86 260q0 25 -38.5 51t-88.5 39z" />
<glyph unicode="&#x201e;" horiz-adv-x="884" d="M78 119q0 26 4.5 52t16.5 59.5t40.5 58.5t69.5 33q90 -5 146.5 -57t56.5 -146q0 -59 -23.5 -125.5t-59.5 -123t-66.5 -96t-57.5 -67.5l-86 62q86 137 86 260q0 25 -38.5 51t-88.5 39zM479 119q0 26 4.5 52t16.5 59.5t40.5 58.5t69.5 33q90 -5 146.5 -57t56.5 -146 q0 -59 -23.5 -125.5t-59.5 -123t-66.5 -96t-57.5 -67.5l-86 62q86 137 86 260q0 25 -38.5 51t-88.5 39z" />
<glyph unicode="&#x2022;" horiz-adv-x="739" d="M119 700q0 109 72.5 185t177.5 76q106 0 179 -76t73 -185q0 -108 -73 -181t-179 -73t-178 73t-72 181z" />
<glyph unicode="&#x2026;" horiz-adv-x="1775" d="M127 152q0 70 46 117.5t118 47.5q73 0 121.5 -47t48.5 -116q0 -74 -48.5 -124t-121.5 -50t-118.5 49t-45.5 123zM719 152q0 70 46 117.5t118 47.5q73 0 121.5 -47t48.5 -116q0 -74 -48.5 -124t-121.5 -50t-118.5 49t-45.5 123zM1315 152q0 70 46 117.5t118 47.5 q73 0 121.5 -47t48.5 -116q0 -74 -48.5 -124t-121.5 -50t-118.5 49t-45.5 123z" />
<glyph unicode="&#x202f;" horiz-adv-x="372" />
<glyph unicode="&#x2039;" horiz-adv-x="679" d="M90 434v160q88 57 198.5 139.5t177.5 136.5l66 54l58 -74q-11 -20 -32 -54.5t-86.5 -123.5t-133.5 -158q68 -69 131 -153t92 -133l29 -50l-58 -74q-245 201 -442 330z" />
<glyph unicode="&#x203a;" horiz-adv-x="679" d="M90 178q11 20 32 54.5t86.5 123.5t133.5 158q-68 69 -131 153t-92 133l-29 50l57 74q246 -201 443 -330v-160q-88 -57 -198.5 -139.5t-177.5 -136.5l-67 -54z" />
<glyph unicode="&#x205f;" horiz-adv-x="465" />
<glyph unicode="&#x20ac;" d="M78 365q0 63 47 110h84v23q0 30 4 84h-135q0 63 47 110h113q56 178 201 284.5t319 106.5q180 0 278 -71q15 -30 15 -66q0 -56 -30 -101.5t-75 -70.5q-33 51 -105.5 101.5t-154.5 50.5q-78 0 -126.5 -60t-63.5 -174h342q0 -63 -47 -110h-304q0 -58 5 -107h346 q0 -63 -47 -110h-281q56 -209 268 -209q120 0 228 53l36 -103q-187 -126 -403 -126q-74 0 -140 22t-124 66.5t-99 120.5t-57 176h-141z" />
<glyph unicode="&#x2122;" horiz-adv-x="1570" d="M70 1167v17q0 113 8 168h516q10 -68 10 -168q0 -11 -2 -17q-11 -8 -35 -8l-26 6q-10 70 -23 101l-110 4v-400l79 -12q0 -47 -18 -63q-100 4 -143 4l-136 -4q-2 6 -2 20q0 10 6 21t12 16l5 6l53 12v400l-110 -4q-17 -41 -21 -101q-15 -6 -29 -6q-21 0 -34 8zM625 809 q0 10 6 22.5t12 19.5l6 7l47 12l41 412l-67 10q-2 6 -2 15q0 10 5.5 21.5t10.5 17.5l6 6h230l131 -391l131 391h237q0 -40 -18 -60q-24 -6 -47 -10l43 -412l71 -12q0 -43 -18 -63q-94 4 -135 4l-119 -4q-2 6 -2 14q0 10 6 22.5t12 19.5l7 7l47 12l-33 359l-146 -432h-114 l-152 426l-30 -353l75 -12q0 -45 -18 -63q-53 4 -94 4l-127 -4q-2 6 -2 14z" />
<glyph unicode="&#xe000;" horiz-adv-x="972" d="M0 0v973h973v-973h-973z" />
<glyph unicode="&#xfb01;" horiz-adv-x="1423" d="M43 901l147 84v37q0 117 62.5 224t177.5 176t252 69q93 0 158 -27q14 -25 14 -59q0 -51 -26 -108t-58 -87q-38 33 -112 75t-121 42q-33 0 -45.5 -45.5t-12.5 -142.5v-150l275 4q0 -89 -70 -159h-205v-697q40 -7 93.5 -13t87.5 -8l34 -3q-2 -60 -49 -117q-174 8 -313 8 l-273 -8q-6 15 -6 31q0 24 14.5 43.5t28.5 27.5l15 8l79 25v703h-131zM809 887q0 24 13.5 44t26.5 28l13 8q214 14 404 30v-866q26 -6 63.5 -12.5t61.5 -9.5l24 -3q-2 -53 -49 -110q-168 8 -248 8l-280 -8q-7 17 -7 31q0 24 14.5 43.5t28.5 27.5l15 8l88 25v703l-164 26 q-4 12 -4 27zM928 1327q0 69 50.5 118.5t121.5 49.5q75 0 122.5 -49.5t47.5 -118.5q0 -72 -51 -123t-123 -51q-75 0 -121.5 51t-46.5 123z" />
<glyph unicode="&#xfb02;" horiz-adv-x="1370" d="M43 901l147 84v37q0 87 37.5 171.5t102.5 150.5t160.5 106.5t203.5 40.5q102 0 203 -37l315 41v-1364q26 -6 63.5 -12.5t62.5 -9.5l24 -3q-6 -53 -53 -110q-164 8 -244 8l-281 -8q-6 15 -6 31q0 24 14.5 43.5t29.5 27.5l14 8l88 25v1096q-75 49 -164.5 76.5t-167.5 27.5 q-66 0 -89.5 -35.5t-23.5 -128.5v-178l281 4q0 -89 -70 -159h-211v-697q40 -7 83 -13t66 -8l23 -3q-2 -60 -49 -117q-131 8 -270 8l-273 -8q-6 15 -6 31q0 24 14.5 43.5t28.5 27.5l15 8l79 25v703h-131z" />
</font>
</defs>
</svg>
